<svg xmlns="http://www.w3.org/2000/svg" xmlns:xlink="http://www.w3.org/1999/xlink" width="500" zoomAndPan="magnify" viewBox="0 0 375 374.999991" height="500" preserveAspectRatio="xMidYMid meet" version="1.0"><defs><filter x="0%" y="0%" width="100%" height="100%" id="2e211f9ff7"><feColorMatrix values="0 0 0 0 1 0 0 0 0 1 0 0 0 0 1 0 0 0 1 0" color-interpolation-filters="sRGB"/></filter><mask id="80776f10f5"><g filter="url(#2e211f9ff7)"><rect x="-37.5" width="450" fill="#000000" y="-37.499999" height="449.999989" fill-opacity="0.81"/></g></mask><clipPath id="46c8753450"><path d="M 51 0.5 L 106 0.5 L 106 33 L 51 33 Z M 51 0.5 " clip-rule="nonzero"/></clipPath><clipPath id="482cb796a5"><path d="M 49 0.5 L 56 0.5 L 56 61 L 49 61 Z M 49 0.5 " clip-rule="nonzero"/></clipPath><clipPath id="242f7d11a3"><path d="M 12.097656 199.074219 L 175.863281 199.074219 L 175.863281 300.425781 L 12.097656 300.425781 Z M 12.097656 199.074219 " clip-rule="nonzero"/></clipPath><clipPath id="5a5e6b069b"><rect x="0" width="177" y="0" height="302"/></clipPath></defs><g mask="url(#80776f10f5)"><g transform="matrix(1, 0, 0, 1, 102, 37)"><g clip-path="url(#5a5e6b069b)"><path fill="#ffffff" d="M 101.101562 58.070312 C 101.085938 59.628906 101.082031 61.230469 101.308594 62.753906 C 101.460938 61.835938 101.582031 60.914062 101.75 60 C 106.445312 36.207031 112.828125 27.84375 106.632812 2.046875 C 105.648438 11.550781 106.460938 21.152344 105.25 30.640625 C 104.140625 39.839844 100.816406 48.707031 101.101562 58.070312 " fill-opacity="1" fill-rule="nonzero"/><g clip-path="url(#46c8753450)"><path fill="#ffffff" d="M 51.480469 0.738281 C 60.164062 12.207031 71.21875 21.523438 81 32.015625 C 80.984375 32.050781 80.96875 32.089844 80.953125 32.132812 C 80.976562 32.101562 81 32.066406 81.019531 32.039062 C 81.113281 32.136719 81.207031 32.234375 81.296875 32.335938 C 81.222656 32.214844 81.140625 32.09375 81.066406 31.972656 C 85.6875 25.34375 91.386719 19.65625 96.683594 13.582031 C 99.742188 9.628906 104.296875 6.199219 105.480469 1.175781 C 103.117188 4.722656 99.160156 6.789062 96.203125 9.796875 C 89.695312 16.039062 84.164062 23.433594 81.03125 31.921875 C 77.664062 26.703125 74.367188 21.304688 70.011719 16.8125 C 70.097656 16.90625 70.183594 17 70.265625 17.089844 C 64.421875 11.136719 58.484375 4.921875 51.328125 0.574219 C 51.382812 0.632812 51.429688 0.6875 51.480469 0.742188 C 51.480469 0.742188 51.480469 0.742188 51.480469 0.738281 " fill-opacity="1" fill-rule="nonzero"/></g><g clip-path="url(#482cb796a5)"><path fill="#ffffff" d="M 49.558594 28.410156 C 49.789062 39.335938 54.6875 49.59375 55.265625 60.398438 C 56.917969 52.066406 54.625 43.371094 53.484375 35.074219 C 52.53125 28.242188 52.753906 21.375 53.433594 14.53125 C 53.429688 14.566406 53.429688 14.605469 53.429688 14.640625 C 53.433594 14.523438 53.441406 14.40625 53.445312 14.289062 C 53.445312 14.3125 53.441406 14.335938 53.441406 14.359375 C 53.664062 9.84375 53.425781 5.007812 51.191406 0.992188 C 52.828125 10.1875 48.566406 19.195312 49.558594 28.410156 " fill-opacity="1" fill-rule="nonzero"/></g><path fill="#ffffff" d="M 88.40625 62.453125 C 82.105469 61.550781 75.75 60.402344 69.378906 61.316406 C 66.171875 61.710938 63.015625 62.421875 59.84375 63.039062 C 66.304688 64.402344 73.046875 64.453125 79.625 63.914062 C 81.796875 63.699219 95.121094 62.972656 88.40625 62.453125 " fill-opacity="1" fill-rule="nonzero"/><path fill="#ffffff" d="M 19.066406 270.699219 C 21.683594 269.769531 23.449219 267.527344 24.84375 265.222656 C 32.503906 250.8125 33.253906 234.011719 34.832031 218.066406 C 35.910156 203.898438 38.808594 189.933594 39.929688 175.769531 C 41.519531 150.667969 44.34375 125.679688 48.472656 100.863281 C 50.023438 93.972656 50.957031 86.960938 52.578125 80.082031 C 53.695312 73.144531 56.328125 66.183594 56.238281 59.175781 C 54.988281 64.664062 52.160156 69.734375 50.867188 75.257812 C 47.949219 86.398438 46.117188 97.855469 44.464844 109.242188 C 42.40625 123.199219 40.332031 137.164062 38.90625 151.203125 C 38.152344 159.945312 38 168.738281 36.914062 177.453125 C 35.886719 189.8125 33.496094 202.015625 32.152344 214.34375 C 30.996094 230.320312 28.386719 246.132812 23.808594 261.488281 C 22.882812 264.8125 21.835938 268.460938 19.066406 270.699219 " fill-opacity="1" fill-rule="nonzero"/><path fill="#ffffff" d="M 112.273438 125.683594 C 113.28125 138.0625 115.878906 150.222656 117.992188 162.445312 C 120.378906 175.820312 122.046875 189.367188 126.019531 202.402344 C 132.128906 222.546875 137.316406 243.878906 150.121094 260.992188 C 152.171875 264.046875 154.789062 266.707031 157.816406 268.757812 C 155.695312 265.957031 153.917969 262.933594 152.476562 259.730469 C 139.296875 237.621094 131.171875 213.03125 125.277344 188.078125 C 122.582031 174.023438 120.554688 159.839844 117.929688 145.769531 C 115.351562 132.507812 114.8125 118.972656 111.792969 105.773438 C 109.429688 91.304688 106.394531 76.5625 98.210938 64.144531 C 104.246094 84.324219 109.238281 104.816406 112.273438 125.683594 " fill-opacity="1" fill-rule="nonzero"/><path fill="#ffffff" d="M 8.886719 277.441406 C 6.640625 273.46875 -1.519531 274.855469 9.105469 267.316406 C 12.554688 265.40625 16.574219 264.601562 19.777344 262.230469 C 23.019531 259.699219 22.820312 256.867188 18.183594 257.222656 C 18.921875 257.707031 20.917969 257.765625 20.800781 258.839844 C 20.753906 258.972656 20.691406 259.101562 20.613281 259.21875 C 20.640625 259.171875 20.671875 259.117188 20.699219 259.066406 C 17.652344 262.214844 12.589844 261.957031 8.757812 263.722656 C 1.242188 266.734375 -4.886719 274.894531 6.011719 278.484375 C 1.65625 284.046875 4.921875 284.324219 10.171875 285.667969 C 1.363281 281.097656 8.875 283.074219 8.886719 277.441406 " fill-opacity="1" fill-rule="nonzero"/><g clip-path="url(#242f7d11a3)"><path fill="#ffffff" d="M 172.695312 266.804688 C 167.085938 262.578125 160.683594 259.378906 153.675781 258.492188 C 160.335938 261.820312 166.46875 266.144531 172.101562 270.980469 C 171.609375 272.800781 169.613281 274.125 170.140625 276.230469 C 171.855469 280.390625 170.652344 283.507812 166.09375 284.539062 C 160.808594 285.949219 161.195312 287.832031 157.792969 290.863281 C 146.398438 294.667969 133.910156 293.617188 122.082031 295.09375 C 117.492188 295.664062 112.757812 295.632812 108.316406 294.300781 C 110.214844 295.4375 112.3125 296.226562 114.472656 296.746094 C 112.882812 296.742188 111.015625 296.738281 109.097656 296.6875 C 104.109375 296.703125 99.046875 296.910156 94.101562 296.140625 C 91.148438 294.78125 89.9375 294.253906 86.632812 295.023438 C 80.847656 295.1875 74.972656 296.511719 69.226562 295.539062 C 66.597656 295.042969 65.066406 291.25 62.089844 292.859375 C 50.195312 294.667969 38.183594 292.5625 26.417969 290.761719 C 24.902344 290.394531 23.089844 290.292969 21.273438 290.117188 C 30.769531 276.453125 36.121094 260.5 38.625 244.050781 C 41.53125 229.300781 43.925781 214.421875 45.679688 199.511719 C 39.550781 216.566406 37.984375 234.804688 33.640625 252.335938 C 30.980469 264.664062 25.082031 275.890625 20.496094 287.550781 C 20.207031 288.335938 19.921875 289.132812 19.648438 289.929688 C 16.617188 289.511719 13.832031 288.605469 12.722656 285.597656 C 12.722656 285.597656 12.722656 285.601562 12.722656 285.601562 C 12.675781 285.476562 12.660156 285.324219 12.613281 285.214844 C 12.296875 288.546875 15.066406 290.707031 18.886719 292.175781 C 18.667969 292.847656 18.460938 293.519531 18.261719 294.1875 C 18.714844 293.609375 19.160156 293.027344 19.601562 292.4375 C 25.316406 294.449219 32.996094 295.070312 36.453125 295.761719 C 45.261719 296.980469 54.132812 296.574219 62.972656 296.390625 C 68.703125 302.363281 77.476562 298.839844 84.65625 298.722656 C 89.683594 297.925781 89.332031 298.839844 93.640625 300.140625 C 99.511719 301 105.449219 299.738281 111.21875 298.675781 C 114.753906 298.074219 116.949219 297.660156 118.113281 297.378906 C 118.328125 297.402344 118.542969 297.425781 118.753906 297.441406 C 128.996094 297.953125 139.292969 297.613281 149.488281 296.507812 C 155.164062 296.144531 161.394531 295.300781 164.222656 289.671875 C 166.5625 288.019531 169.714844 287.917969 171.953125 286.058594 C 175.171875 283.519531 175.507812 279.152344 174.15625 275.53125 C 176.730469 272.300781 176.5 268.839844 172.695312 266.804688 " fill-opacity="1" fill-rule="nonzero"/></g><path fill="#ffffff" d="M 74.875 116.710938 C 72.074219 151.695312 72.058594 186.789062 70.972656 221.84375 C 69.644531 244.386719 67.9375 266.933594 65.847656 289.40625 C 71.230469 279.027344 71.6875 267.097656 72.40625 255.648438 C 73.121094 244.6875 73.402344 233.707031 73.773438 222.730469 C 73.976562 202.824219 73.59375 182.917969 73.832031 163.007812 C 74.121094 147.582031 74.933594 132.121094 74.875 116.710938 " fill-opacity="1" fill-rule="nonzero"/><path fill="#ffffff" d="M 98.4375 284.441406 C 98.816406 282.214844 99.023438 279.914062 99.195312 277.648438 C 100.117188 268.972656 98.785156 260.316406 97.449219 251.757812 C 96.148438 242.675781 95.125 233.558594 94.335938 224.417969 C 92.394531 203.445312 92.382812 182.273438 88.917969 161.476562 C 90 194.863281 90.1875 228.40625 94.746094 261.554688 C 95.800781 269.210938 97.214844 276.808594 98.4375 284.441406 " fill-opacity="1" fill-rule="nonzero"/><path fill="#ffffff" d="M 100.644531 101.726562 C 101.441406 143.128906 103.777344 184.757812 113.300781 225.1875 C 118.042969 245.300781 121.527344 266.714844 133.167969 284.207031 C 134.742188 286.425781 136.730469 288.304688 138.796875 290.0625 C 136.636719 286.632812 134.800781 282.960938 133.449219 279.113281 C 127.203125 263.863281 121.550781 248.386719 117.839844 232.300781 C 113.425781 214.519531 109.234375 196.636719 106.941406 178.441406 C 103.386719 153.007812 103.21875 127.230469 100.644531 101.726562 " fill-opacity="1" fill-rule="nonzero"/><path fill="#ffffff" d="M 114.148438 174.714844 C 114.4375 194.386719 118.042969 214.058594 125.792969 232.199219 C 124.335938 212.683594 118.9375 193.613281 114.148438 174.714844 " fill-opacity="1" fill-rule="nonzero"/></g></g></g></svg>