<svg xmlns="http://www.w3.org/2000/svg" xmlns:xlink="http://www.w3.org/1999/xlink" width="500" zoomAndPan="magnify" viewBox="0 0 375 374.999991" height="500" preserveAspectRatio="xMidYMid meet" version="1.0"><defs><filter x="0%" y="0%" width="100%" height="100%" id="3f617161cc"><feColorMatrix values="0 0 0 0 1 0 0 0 0 1 0 0 0 0 1 0 0 0 1 0" color-interpolation-filters="sRGB"/></filter><mask id="6892c5fea9"><g filter="url(#3f617161cc)"><rect x="-37.5" width="450" fill="#000000" y="-37.499999" height="449.999989" fill-opacity="0.85"/></g></mask><clipPath id="28f373d03e"><path d="M 0.28125 0.679688 L 100.601562 0.679688 L 100.601562 299.71875 L 0.28125 299.71875 Z M 0.28125 0.679688 " clip-rule="nonzero"/></clipPath><clipPath id="5584f04d64"><rect x="0" width="101" y="0" height="300"/></clipPath></defs><g mask="url(#6892c5fea9)"><g transform="matrix(1, 0, 0, 1, 137, 37)"><g clip-path="url(#5584f04d64)"><g clip-path="url(#28f373d03e)"><path fill="#ffffff" d="M 83.6875 137.246094 C 82.960938 141.320312 82.742188 145.300781 82.609375 149.265625 C 82.363281 156.394531 82.300781 163.53125 82.179688 170.664062 C 82.078125 176.570312 81.8125 182.476562 80.90625 188.371094 C 79.910156 194.859375 79.785156 201.472656 79.742188 208.054688 C 79.648438 221.863281 79.648438 235.671875 79.476562 249.476562 C 79.34375 260.128906 78.976562 270.777344 78.175781 281.410156 C 77.863281 285.566406 77.882812 289.734375 78.414062 293.894531 C 78.757812 296.605469 78.613281 296.507812 76.410156 297.828125 C 71.941406 300.503906 67.5 299.203125 63.023438 297.972656 C 62.390625 297.800781 62.105469 297.386719 62.027344 296.796875 C 61.953125 296.246094 61.902344 295.691406 61.882812 295.136719 C 61.535156 285.324219 61.132812 275.515625 60.878906 265.699219 C 60.746094 260.589844 59.941406 255.558594 59.472656 250.488281 C 58.933594 244.679688 58.257812 238.886719 58.011719 233.050781 C 57.441406 219.625 56.164062 206.257812 54.855469 192.890625 C 54.050781 184.679688 53.367188 176.4375 53.675781 168.199219 C 53.910156 161.859375 51.992188 156.171875 49.710938 150.488281 C 49.578125 150.160156 49.324219 149.875 49.109375 149.582031 C 49.078125 149.535156 48.949219 149.558594 48.554688 149.511719 C 48.394531 152.800781 48.125 156.074219 48.09375 159.351562 C 48.007812 168.0625 48.164062 176.773438 47.976562 185.484375 C 47.644531 201.136719 47.375 216.796875 46.636719 232.433594 C 45.683594 252.613281 44.75 272.78125 45.175781 292.992188 C 45.207031 294.445312 45.710938 296.210938 45.058594 297.246094 C 44.582031 298 42.554688 297.535156 41.222656 297.820312 C 39.152344 298.261719 37.039062 298.523438 34.894531 298.386719 C 33.949219 298.328125 33.058594 298.148438 32.199219 297.796875 C 30.246094 296.996094 28.976562 295.992188 28.765625 293.445312 C 28.402344 289.097656 28.007812 284.785156 28.257812 280.417969 C 28.359375 278.667969 28.199219 276.902344 28.089844 275.144531 C 27.546875 266.546875 26.953125 257.953125 26.4375 249.355469 C 26.140625 244.445312 25.480469 239.582031 24.695312 234.738281 C 23.433594 226.941406 23.1875 219.078125 22.875 211.207031 C 22.402344 199.359375 20.964844 187.582031 19.871094 175.777344 C 18.902344 165.347656 17.40625 154.996094 15.941406 144.632812 C 15.671875 142.710938 15.53125 140.765625 15.394531 138.824219 C 15.324219 137.789062 14.835938 137.339844 13.824219 137.335938 C 11.507812 137.320312 9.179688 137.132812 6.878906 137.3125 C 5.46875 137.421875 4.8125 136.296875 3.796875 136.019531 C 2.226562 135.585938 2.492188 134.480469 2.238281 133.46875 C 1.628906 131.023438 1.578125 128.511719 1.425781 126.023438 C 0.707031 114.175781 0.738281 102.316406 0.757812 90.453125 C 0.785156 75.164062 0.796875 59.875 0.785156 44.589844 C 0.78125 42.460938 0.667969 40.324219 0.488281 38.203125 C -0.0546875 31.882812 1.136719 25.855469 3.421875 19.996094 C 5.007812 15.917969 7.742188 13.390625 12.1875 12.359375 C 18.582031 10.882812 24.996094 9.308594 30.847656 6.148438 C 33.191406 4.882812 35.734375 3.925781 37.632812 1.929688 C 38.347656 1.179688 38.972656 1.632812 39.539062 2.171875 C 41.414062 3.964844 43.292969 5.753906 45.144531 7.570312 C 46.949219 9.339844 50.164062 9.304688 52.019531 7.601562 C 54.335938 5.472656 56.746094 3.441406 59.125 1.378906 C 60.097656 0.539062 60.910156 0.507812 61.503906 1.839844 C 61.945312 2.832031 62.890625 3.320312 63.773438 3.816406 C 71.566406 8.210938 79.605469 11.890625 88.667969 12.785156 C 92.078125 13.125 94.621094 14.871094 95.808594 18.160156 C 99.011719 27.027344 101.058594 35.988281 99.933594 45.613281 C 98.925781 54.246094 99.070312 62.992188 99.375 71.695312 C 99.476562 74.566406 99.550781 77.429688 99.316406 80.300781 C 98.894531 85.480469 98.925781 90.675781 99.058594 95.863281 C 99.292969 105.140625 98.46875 114.378906 98.261719 123.640625 C 98.195312 126.695312 98.164062 129.753906 98.105469 132.8125 C 98.0625 134.9375 96.4375 136.839844 94.351562 137.332031 C 91.804688 137.929688 89.1875 137.734375 86.617188 138.066406 C 85.589844 138.195312 84.695312 137.59375 83.6875 137.246094 Z M 71.53125 298.296875 L 71.523438 298.257812 C 73.25 298.675781 74.496094 297.515625 75.929688 296.945312 C 77.277344 296.410156 77.695312 295.507812 77.433594 294.109375 C 76.921875 291.363281 76.984375 288.574219 76.992188 285.792969 C 77.003906 279.023438 77.816406 272.289062 77.9375 265.53125 C 78.175781 251.910156 78.320312 238.289062 78.472656 224.667969 C 78.53125 219.386719 78.492188 214.101562 78.511719 208.820312 C 78.53125 203.257812 78.695312 197.6875 79.457031 192.179688 C 80.574219 184.082031 81.003906 175.96875 80.976562 167.796875 C 80.941406 158.257812 81.21875 148.71875 82.425781 139.230469 C 82.59375 137.917969 83.042969 136.585938 82.757812 135.226562 C 81.765625 135.160156 81.253906 135.785156 80.652344 136.171875 C 74.675781 140.023438 68.273438 142.839844 61.269531 144.226562 C 58.277344 144.816406 57.710938 144.566406 56.789062 141.65625 C 55.839844 138.65625 55.082031 135.59375 54.167969 132.582031 C 52.464844 126.972656 52.097656 121.105469 50.828125 115.414062 C 50.699219 114.835938 50.863281 114.050781 49.96875 113.886719 C 49.503906 114.308594 49.511719 114.898438 49.417969 115.429688 C 47.984375 123.289062 45.433594 130.84375 43.167969 138.476562 C 41.628906 143.660156 40.960938 144.164062 35.882812 142.519531 C 31.40625 141.070312 26.859375 139.722656 22.652344 137.503906 C 21.019531 136.644531 19.261719 136.019531 17.566406 135.277344 C 16.457031 134.789062 15.992188 135.214844 16.066406 136.347656 C 16.160156 137.824219 16.222656 139.3125 16.425781 140.777344 C 18.210938 153.617188 20.269531 166.414062 21.4375 179.339844 C 22.449219 190.503906 23.625 201.644531 24.183594 212.84375 C 24.429688 217.742188 24.1875 222.65625 24.886719 227.550781 C 25.816406 234.054688 26.796875 240.578125 27.226562 247.128906 C 28.09375 260.34375 29.3125 273.550781 29.035156 286.820312 C 28.988281 289.058594 29.71875 291.222656 29.816406 293.433594 C 29.90625 295.464844 31.078125 296.390625 32.699219 297.074219 C 35.539062 298.277344 36.78125 297.449219 36.890625 294.441406 C 37.140625 287.671875 36.503906 280.925781 36.429688 274.164062 C 36.3125 262.953125 36.363281 251.738281 36.1875 240.523438 C 36.070312 233.027344 35.660156 225.53125 34.929688 218.058594 C 34.585938 214.507812 34.429688 210.9375 34.183594 207.375 C 34.769531 210.476562 35.035156 213.597656 35.308594 216.726562 C 35.96875 224.292969 36.683594 231.859375 36.714844 239.457031 C 36.765625 254.007812 36.730469 268.554688 37.164062 283.097656 C 37.285156 287.171875 37.253906 291.253906 37.335938 295.328125 C 37.375 297.132812 37.539062 297.261719 39.285156 297.097656 C 40.300781 297 41.296875 296.734375 42.308594 296.644531 C 43.675781 296.527344 44.183594 295.941406 44.121094 294.5 C 43.972656 291.078125 43.992188 287.644531 43.96875 284.214844 C 43.847656 265.675781 44.980469 247.171875 45.507812 228.652344 C 45.992188 211.617188 46.867188 194.582031 46.757812 177.523438 C 46.695312 168.261719 46.660156 158.988281 47.523438 149.746094 C 47.625 148.671875 47.480469 147.539062 48.207031 146.453125 C 48.886719 146.921875 49.109375 147.648438 49.441406 148.277344 C 50.949219 151.15625 52.039062 154.210938 53.277344 157.207031 C 54.105469 159.210938 54.53125 161.230469 54.5625 163.40625 C 54.730469 174.339844 55.265625 185.253906 56.460938 196.128906 C 57.542969 205.980469 58.347656 215.863281 58.941406 225.75 C 59.414062 233.609375 59.570312 241.496094 60.628906 249.304688 C 61.660156 256.9375 62.289062 264.582031 62.351562 272.285156 C 62.40625 279.789062 63.101562 287.277344 63 294.789062 C 62.96875 297.09375 63.039062 297.152344 65.472656 297.550781 C 67.476562 297.878906 69.507812 298.054688 71.53125 298.296875 Z M 83.996094 134.601562 C 87.917969 134.183594 91.425781 134.257812 94.9375 134.390625 C 96.925781 134.46875 96.957031 134.421875 96.992188 132.433594 C 97.054688 128.730469 96.980469 125.019531 97.140625 121.320312 C 97.523438 112.527344 98.125 103.746094 97.890625 94.941406 C 97.832031 92.71875 97.53125 90.480469 97.710938 88.28125 C 98.445312 79.210938 97.980469 70.128906 98.164062 61.054688 C 98.265625 56.054688 98.386719 51.042969 98.871094 46.070312 C 99.328125 41.335938 99.507812 36.664062 98.621094 31.96875 C 97.78125 27.5 96.746094 23.09375 95.074219 18.855469 C 94.003906 16.152344 92.175781 14.398438 89.132812 14.113281 C 87.386719 13.949219 85.636719 13.71875 83.910156 13.40625 C 76.976562 12.148438 70.761719 9.050781 64.609375 5.804688 C 64.097656 5.535156 63.707031 4.847656 62.765625 5.277344 C 63.476562 6.894531 64.234375 8.457031 64.863281 10.070312 C 67.664062 17.273438 69.933594 24.589844 69.558594 32.460938 C 69.433594 35.152344 68.878906 37.785156 68.433594 40.429688 C 67.003906 48.953125 64.660156 57.207031 61.042969 65.085938 C 58.4375 70.757812 54.925781 75.882812 51.539062 81.070312 C 48.75 85.34375 47.90625 89.820312 48.683594 94.824219 C 50.015625 103.417969 51.953125 111.910156 53.191406 120.507812 C 54.226562 127.6875 55.867188 134.6875 57.816406 141.648438 C 58.179688 142.933594 58.605469 143.554688 60.085938 143.28125 C 67.769531 141.871094 74.738281 138.742188 81.292969 134.605469 C 82.886719 133.601562 83.707031 132.089844 83.710938 130.175781 C 83.714844 128.320312 83.597656 126.480469 83.375 124.632812 C 82.882812 120.5625 81.335938 116.753906 80.574219 112.75 C 80.324219 111.4375 80.480469 110.007812 79.832031 108.714844 C 79.40625 108.835938 79.101562 108.839844 78.90625 108.988281 C 74.824219 112.089844 69.929688 112.164062 65.160156 112.714844 C 63.617188 112.894531 62.695312 112.3125 62.273438 110.808594 C 61.800781 109.117188 61.269531 107.441406 60.734375 105.765625 C 60.375 104.625 60.675781 104.105469 61.949219 103.941406 C 66.925781 103.296875 71.734375 101.941406 76.488281 100.386719 C 78.507812 99.726562 78.488281 99.699219 78.117188 97.5 C 76.515625 88.011719 76.152344 78.476562 78.09375 69.042969 C 79.378906 62.785156 80.828125 56.589844 81.554688 50.226562 C 82.78125 39.496094 85.578125 29.144531 89.621094 19.132812 C 89.84375 18.582031 89.859375 17.882812 90.953125 17.476562 C 87.679688 27.371094 84.558594 37.039062 83.128906 47.144531 C 81.707031 57.15625 80.410156 67.167969 82.078125 77.59375 C 83.960938 75.769531 84.988281 73.636719 87.28125 71.921875 C 87.019531 73.523438 86.320312 74.257812 85.765625 75.046875 C 84.703125 76.5625 83.578125 78.035156 82.546875 79.574219 C 81.429688 81.238281 81.128906 83.078125 81.523438 85.324219 C 83.910156 83.878906 86.226562 82.792969 89.402344 82.8125 C 87.757812 84.3125 86.125 84.472656 84.722656 85.128906 C 82.398438 86.21875 80.992188 87.730469 80.710938 90.570312 C 80.296875 94.753906 80.445312 98.886719 80.796875 103.03125 C 81.238281 108.195312 81.933594 113.300781 83.320312 118.34375 C 84.734375 123.488281 85.941406 128.785156 83.996094 134.601562 Z M 21.074219 108.9375 C 20.621094 109.253906 20.566406 109.726562 20.464844 110.167969 C 18.820312 117.199219 17.886719 124.382812 15.808594 131.320312 C 15.433594 132.570312 16.007812 133.210938 17.164062 133.585938 C 20.074219 134.535156 22.800781 135.9375 25.609375 137.136719 C 29.179688 138.660156 32.839844 140.003906 36.535156 141.195312 C 40.144531 142.363281 40.539062 142.054688 41.679688 138.550781 C 41.734375 138.371094 41.796875 138.199219 41.851562 138.019531 C 44.636719 129.1875 46.96875 120.226562 49.4375 111.304688 C 49.71875 110.285156 49.660156 109.296875 49.488281 108.28125 C 48.707031 103.71875 47.902344 99.15625 47.175781 94.585938 C 46.769531 92.023438 46.359375 89.421875 47.414062 86.914062 C 47.917969 85.71875 47.292969 85.03125 46.597656 84.234375 C 37.996094 74.371094 32.988281 62.652344 29.621094 50.222656 C 26.425781 38.414062 25.8125 26.292969 26.511719 14.101562 C 26.601562 12.5625 27.113281 11.222656 28.144531 10.066406 C 28.539062 9.625 29.226562 9.351562 29.113281 8.382812 C 22.816406 11.050781 16.289062 12.675781 9.671875 13.972656 C 8.632812 14.175781 7.867188 14.855469 7.207031 15.675781 C 6.089844 17.058594 5.195312 18.5625 4.550781 20.214844 C 2.683594 25.003906 1.484375 29.9375 1.632812 35.113281 C 1.871094 43.53125 2.0625 51.945312 1.820312 60.378906 C 1.578125 68.707031 2.234375 77.058594 2.058594 85.386719 C 1.773438 98.648438 2.054688 111.890625 2.464844 125.136719 C 2.550781 127.820312 2.75 130.5 2.878906 133.183594 C 2.921875 134.070312 3.238281 134.589844 4.234375 134.429688 C 7.179688 133.957031 10.148438 134.070312 13.113281 134.035156 C 13.910156 134.023438 14.363281 133.957031 14.5625 132.90625 C 15.925781 125.820312 17.410156 118.761719 18.863281 111.691406 C 19.789062 107.171875 21.183594 102.730469 20.625 97.996094 C 20.332031 95.515625 20.265625 93.003906 20.265625 90.507812 C 20.265625 88.902344 19.777344 87.644531 18.597656 86.585938 C 17.980469 86.03125 17.433594 85.386719 16.90625 84.742188 C 16.445312 84.183594 15.773438 83.71875 15.585938 82.734375 C 17.394531 83.476562 18.09375 85.214844 19.699219 85.929688 C 19.859375 82.871094 19.753906 81.839844 19.136719 80.644531 C 17.644531 77.773438 16.136719 74.90625 14.648438 72.03125 C 14.351562 71.460938 13.882812 70.929688 14.023438 69.707031 C 15.742188 72.65625 17.230469 75.203125 18.714844 77.75 C 18.855469 71.355469 19.738281 65.203125 20.113281 59.019531 C 20.230469 57.058594 19.925781 55.136719 19.515625 53.230469 C 17.671875 44.628906 15.734375 36.054688 13.210938 27.621094 C 12.597656 25.570312 11.9375 23.566406 10.9375 21.667969 C 10.140625 20.148438 9.453125 18.570312 8.714844 17.019531 C 10.527344 18.375 12.367188 21.285156 13.335938 24.691406 C 15.082031 30.832031 17.152344 36.890625 18.363281 43.175781 C 19.136719 47.179688 20.058594 51.144531 20.984375 55.113281 C 23.074219 64.082031 24.160156 73.152344 23.625 82.394531 C 23.335938 87.390625 23.09375 92.378906 22.425781 97.347656 C 22.046875 100.140625 22.113281 100.214844 24.929688 100.917969 C 27.625 101.59375 30.359375 102.105469 33.058594 102.753906 C 34.820312 103.179688 37.308594 102.664062 38.144531 104.308594 C 38.90625 105.804688 37.738281 107.863281 37.324219 109.652344 C 36.84375 111.730469 36.71875 111.796875 34.496094 111.835938 C 30.738281 111.90625 27.132812 111.15625 23.644531 109.78125 C 22.796875 109.449219 22.019531 108.875 21.074219 108.9375 Z M 48.199219 80.636719 C 48.589844 80.175781 48.851562 79.996094 48.925781 79.761719 C 50.125 75.875 51.355469 72.003906 52.792969 68.199219 C 53.011719 67.617188 52.953125 66.921875 52.988281 66.28125 C 53.660156 53.777344 52.492188 41.335938 51.761719 28.882812 C 51.585938 25.835938 51.273438 22.800781 50.996094 19.761719 C 50.949219 19.238281 51.078125 18.484375 50.476562 18.292969 C 49.414062 17.957031 48.265625 18.089844 47.21875 18.375 C 46.367188 18.609375 46.457031 19.574219 46.363281 20.265625 C 45.394531 27.410156 44.351562 34.546875 44.589844 41.796875 C 44.664062 44.011719 44.675781 46.238281 44.578125 48.453125 C 44.253906 55.765625 44.425781 63.054688 45.230469 70.332031 C 45.621094 73.847656 46.355469 77.234375 48.199219 80.636719 Z M 36.179688 5.007812 C 34.753906 6.148438 33.859375 6.925781 32.90625 7.621094 C 29.492188 10.097656 27.925781 13.101562 27.800781 17.636719 C 27.375 33.503906 29.308594 48.859375 35.761719 63.46875 C 38.417969 69.476562 41.125 75.480469 45.328125 80.632812 C 45.6875 81.074219 45.957031 81.683594 46.644531 81.78125 C 46.71875 81.542969 46.785156 81.441406 46.761719 81.375 C 46.527344 80.675781 46.277344 79.980469 46.035156 79.285156 C 42.398438 68.800781 38.292969 58.480469 36.507812 47.417969 C 35.445312 40.839844 34.164062 34.296875 33.730469 27.640625 C 33.46875 23.578125 33.414062 19.515625 33.960938 15.445312 C 34.40625 12.140625 35.421875 8.972656 36.179688 5.007812 Z M 43.425781 66.484375 C 43.730469 64.042969 43.195312 61.789062 43.085938 59.519531 C 42.847656 54.609375 43.320312 49.699219 43.140625 44.792969 C 42.867188 37.535156 43.109375 30.269531 44.785156 23.246094 C 45.824219 18.910156 45.121094 15.546875 42.425781 12.308594 C 42.371094 12.242188 42.335938 12.148438 42.300781 12.0625 C 41.851562 10.988281 41.195312 11.132812 40.316406 11.605469 C 35.636719 14.113281 35.171875 14.851562 35.101562 20.261719 C 35.09375 20.910156 35.105469 21.558594 35.105469 22.210938 C 35.109375 30.863281 36.476562 39.351562 38.09375 47.828125 C 39.171875 53.476562 40.316406 59.085938 42.28125 64.503906 C 42.519531 65.167969 42.59375 65.933594 43.425781 66.484375 Z M 54.582031 62.019531 C 60.730469 47.007812 62.636719 31.480469 60.605469 15.261719 C 58.539062 15.828125 57.109375 14.773438 55.667969 13.742188 C 55.222656 13.421875 54.632812 12.90625 54.269531 13.570312 C 53.246094 15.441406 51.394531 16.875 51.8125 19.488281 C 52.917969 26.429688 53.226562 33.457031 53.839844 40.449219 C 54.320312 45.878906 54.734375 51.316406 54.53125 56.78125 C 54.464844 58.523438 53.921875 60.25 54.582031 62.019531 Z M 61.679688 6.328125 C 60.941406 7.269531 61.203125 8.125 61.1875 8.914062 C 61.121094 11.980469 61.699219 14.996094 62.109375 18.015625 C 63.792969 30.320312 62.578125 42.386719 59.117188 54.246094 C 57.25 60.636719 54.957031 66.894531 52.644531 73.136719 C 51.980469 74.933594 51.246094 76.71875 51.054688 78.730469 C 51.351562 78.613281 51.582031 78.597656 51.660156 78.480469 C 55.289062 72.996094 58.742188 67.390625 61.191406 61.273438 C 64.886719 52.042969 67.242188 42.449219 68.296875 32.550781 C 68.457031 31.070312 68.449219 29.601562 68.308594 28.121094 C 67.707031 21.804688 65.992188 15.773438 63.582031 9.929688 C 63.09375 8.746094 62.730469 7.480469 61.679688 6.328125 Z M 78.878906 101.613281 C 73.605469 104.464844 67.761719 104.988281 62.070312 106.253906 C 62.148438 107.671875 62.753906 108.835938 63.074219 110.066406 C 63.429688 111.433594 64.25 112.050781 65.730469 111.78125 C 67.90625 111.386719 70.089844 111.027344 72.285156 110.757812 C 74.882812 110.441406 76.832031 108.832031 78.96875 107.585938 C 79.480469 107.285156 79.8125 106.875 79.757812 106.246094 C 79.632812 104.710938 79.742188 103.132812 78.878906 101.613281 Z M 37.203125 105.121094 C 32.339844 105.003906 27.644531 104.226562 23.101562 102.644531 C 22.320312 102.375 21.886719 102.640625 21.792969 103.5 C 21.257812 108.351562 19.984375 107.433594 24.976562 109.40625 C 25.914062 109.777344 26.890625 110.078125 27.875 110.308594 C 30.121094 110.828125 32.382812 111.261719 34.710938 110.78125 C 35.4375 110.628906 36.210938 110.601562 36.34375 109.625 C 36.53125 108.1875 37.273438 106.847656 37.203125 105.125 Z M 47.847656 10.359375 C 46.664062 10.546875 45.3125 10.148438 43.941406 10.085938 C 42.917969 10.035156 42.570312 10.621094 43.175781 11.476562 C 44.230469 12.976562 45.390625 14.40625 46.550781 15.832031 C 47.710938 17.253906 49.210938 17.425781 50.535156 16.191406 C 51.820312 14.988281 52.691406 13.445312 53.40625 11.847656 C 53.792969 10.992188 53.445312 10.394531 52.460938 10.371094 C 50.992188 10.335938 49.523438 10.359375 47.847656 10.359375 Z M 21.503906 92.085938 C 23.34375 83.058594 22.9375 66.148438 21.042969 63.425781 C 19.597656 72.710938 20.878906 82.074219 21.503906 92.085938 Z M 60.285156 3.195312 C 60.0625 3.089844 59.835938 2.988281 59.609375 2.882812 C 57.503906 4.71875 55.394531 6.558594 53.277344 8.40625 C 53.953125 9.199219 54.96875 9.492188 54.976562 10.4375 C 55 12.476562 56.773438 12.828125 58.007812 13.648438 C 58.847656 14.207031 59.433594 13.710938 59.515625 12.785156 C 59.796875 9.589844 60.03125 6.394531 60.285156 3.195312 Z M 79.855469 67.746094 C 77.914062 76.222656 77.835938 84.722656 78.9375 93.269531 C 80.085938 84.785156 80.734375 76.277344 79.855469 67.746094 Z M 36.226562 12.484375 C 39.183594 10.886719 41.421875 9.113281 44.472656 8.480469 C 42.871094 6.539062 41.277344 5.019531 39.578125 3.601562 C 38.929688 3.058594 38.324219 3.082031 38.109375 3.941406 C 37.445312 6.609375 36.628906 9.246094 36.226562 12.484375 Z M 94.796875 136.109375 L 94.835938 135.53125 C 91.898438 135.53125 88.960938 135.523438 86.023438 135.539062 C 85.585938 135.542969 85.039062 135.550781 85.109375 136.238281 C 85.152344 136.660156 85.5 136.929688 85.867188 136.910156 C 88.851562 136.730469 91.898438 137.054688 94.796875 136.109375 Z M 13.945312 135.816406 C 11.335938 135.355469 8.75 135.398438 6.171875 135.769531 C 8.769531 136.242188 11.367188 136.1875 13.945312 135.816406 Z M 61.855469 104.585938 C 64.066406 105.273438 64.8125 105.125 67.582031 103.75 C 65.34375 104.078125 63.601562 104.332031 61.855469 104.585938 Z M 29.277344 103.0625 C 27.535156 102.660156 25.90625 101.757812 24.082031 101.910156 C 25.738281 102.703125 27.46875 103.117188 29.277344 103.0625 Z M 29.277344 103.0625 " fill-opacity="1" fill-rule="nonzero"/></g><path fill="#ffffff" d="M 71.53125 298.296875 C 70.179688 288.085938 70.144531 277.824219 70.046875 267.539062 C 69.945312 256.433594 69.226562 245.332031 68.777344 234.230469 C 68.753906 233.671875 68.710938 233.117188 68.707031 232.5625 C 68.5625 217.003906 67.65625 201.457031 68.425781 185.890625 C 68.425781 188.46875 68.484375 191.046875 68.417969 193.625 C 68.117188 205.667969 68.726562 217.707031 69.179688 229.726562 C 69.574219 240.179688 70.035156 250.636719 70.449219 261.09375 C 70.710938 267.753906 70.660156 274.429688 70.65625 281.101562 C 70.652344 284.632812 70.992188 288.125 71.507812 291.609375 C 71.832031 293.8125 72.03125 296.023438 71.519531 298.246094 C 71.523438 298.257812 71.53125 298.296875 71.53125 298.296875 Z M 71.53125 298.296875 " fill-opacity="1" fill-rule="nonzero"/><path fill="#ffffff" d="M 33.25 195.59375 L 33.25 198.25 C 33.238281 198.25 33.226562 198.25 33.214844 198.25 L 33.214844 195.59375 C 33.226562 195.59375 33.238281 195.59375 33.25 195.59375 Z M 33.25 195.59375 " fill-opacity="1" fill-rule="nonzero"/><path fill="#ffffff" d="M 33.859375 202.953125 L 33.859375 204.511719 C 33.816406 204.511719 33.777344 204.511719 33.734375 204.511719 L 33.734375 202.988281 Z M 33.859375 202.953125 " fill-opacity="1" fill-rule="nonzero"/><path fill="#ffffff" d="M 53.246094 88.449219 C 53.277344 89.566406 52.492188 90.503906 51.460938 90.519531 C 50.328125 90.539062 49.785156 89.898438 49.738281 88.808594 C 49.691406 87.707031 50.65625 86.320312 51.488281 86.269531 C 52.269531 86.222656 53.214844 87.390625 53.246094 88.449219 Z M 53.246094 88.449219 " fill-opacity="1" fill-rule="nonzero"/></g></g></g></svg>