<svg xmlns="http://www.w3.org/2000/svg" xmlns:xlink="http://www.w3.org/1999/xlink" width="500" zoomAndPan="magnify" viewBox="0 0 375 374.999991" height="500" preserveAspectRatio="xMidYMid meet" version="1.0"><defs><filter x="0%" y="0%" width="100%" height="100%" id="644a370d4b"><feColorMatrix values="0 0 0 0 1 0 0 0 0 1 0 0 0 0 1 0 0 0 1 0" color-interpolation-filters="sRGB"/></filter><clipPath id="5aabb3c71f"><path d="M 37.5 150 L 133.5 150 L 133.5 251 L 37.5 251 Z M 37.5 150 " clip-rule="nonzero"/></clipPath><mask id="40478843af"><g filter="url(#644a370d4b)"><rect x="-37.5" width="450" fill="#000000" y="-37.499999" height="449.999989" fill-opacity="0.7"/></g></mask><clipPath id="da8fcc64a9"><path d="M 33 0.707031 L 58 0.707031 L 58 6 L 33 6 Z M 33 0.707031 " clip-rule="nonzero"/></clipPath><clipPath id="0da7b34388"><path d="M 45 9 L 90.441406 9 L 90.441406 111.707031 L 45 111.707031 Z M 45 9 " clip-rule="nonzero"/></clipPath><clipPath id="3f1cb2ce6d"><path d="M 0.445312 9 L 47 9 L 47 111.707031 L 0.445312 111.707031 Z M 0.445312 9 " clip-rule="nonzero"/></clipPath><clipPath id="3425ab3bd0"><rect x="0" width="91" y="0" height="112"/></clipPath></defs><g clip-path="url(#5aabb3c71f)"><path fill="#ffffff" d="M 131.785156 232.980469 C 126.160156 221.011719 119.234375 209.207031 110.621094 196.886719 L 110.421875 196.601562 C 109.496094 195.28125 108.554688 193.933594 107.742188 192.53125 C 108.210938 190.949219 108.929688 190.378906 109.691406 189.785156 C 110.578125 189.089844 111.496094 188.371094 111.949219 186.199219 C 112.046875 185.734375 111.800781 184.945312 111.125 183.5625 L 111.070312 183.453125 C 111.054688 183.421875 111.070312 183.300781 111.210938 183.105469 C 111.558594 182.617188 112.292969 182.191406 112.589844 182.222656 C 112.847656 182.261719 113.101562 182.320312 113.347656 182.402344 C 113.816406 182.542969 114.296875 182.6875 114.824219 182.601562 C 115.40625 182.496094 115.847656 182.1875 116.148438 181.679688 C 116.585938 180.925781 116.683594 180.132812 116.4375 179.292969 C 116.160156 178.390625 115.578125 177.660156 115.011719 176.953125 C 114.832031 176.726562 114.640625 176.492188 114.472656 176.257812 C 114.011719 175.628906 113.304688 174.421875 113.746094 173.378906 C 113.984375 172.820312 114.515625 172.402344 115.074219 171.964844 C 115.800781 171.390625 116.550781 170.796875 116.714844 169.824219 C 116.867188 168.914062 116.425781 168.140625 115.996094 167.390625 C 115.8125 167.09375 115.652344 166.78125 115.511719 166.464844 C 114.679688 164.421875 115.929688 162.34375 117.253906 160.136719 C 118.617188 157.867188 120.027344 155.515625 119.039062 153.113281 C 118.066406 150.742188 115.058594 149.867188 112.714844 150.390625 C 110.613281 150.859375 107.511719 153.371094 105.558594 154.984375 C 105.546875 154.945312 105.535156 154.910156 105.527344 154.878906 C 104.992188 153.441406 101.609375 152.828125 99.375 152.941406 C 97.5625 153.03125 96.441406 153.554688 96.21875 154.40625 C 95.894531 155.632812 95.632812 156.945312 95.355469 158.332031 C 94.511719 162.542969 93.558594 167.320312 90.578125 170.542969 C 89.136719 172.097656 86.21875 174.632812 82.851562 174.128906 C 79.347656 173.605469 76.050781 169.203125 75.277344 165.582031 C 74.960938 164.089844 74.945312 162.355469 74.925781 160.675781 C 74.902344 158.183594 74.878906 156.027344 73.824219 155.238281 C 71.8125 153.734375 67.984375 153.742188 65.996094 154.332031 C 65.183594 154.570312 64.695312 154.898438 64.542969 155.308594 C 64.535156 155.332031 64.527344 155.355469 64.519531 155.378906 L 64.503906 155.367188 C 62.566406 153.769531 59.324219 151.09375 57.148438 150.609375 C 54.804688 150.085938 51.796875 150.960938 50.820312 153.332031 C 49.835938 155.730469 51.246094 158.082031 52.609375 160.355469 C 53.933594 162.558594 55.183594 164.640625 54.347656 166.679688 C 54.207031 167 54.046875 167.308594 53.867188 167.609375 C 53.4375 168.355469 52.996094 169.128906 53.148438 170.039062 C 53.308594 171.015625 54.0625 171.609375 54.789062 172.179688 C 55.347656 172.621094 55.878906 173.035156 56.113281 173.597656 C 56.558594 174.640625 55.851562 175.847656 55.390625 176.476562 C 55.21875 176.710938 55.03125 176.945312 54.851562 177.171875 C 54.285156 177.878906 53.699219 178.605469 53.421875 179.511719 C 53.175781 180.347656 53.273438 181.140625 53.714844 181.894531 C 54.015625 182.40625 54.457031 182.714844 55.039062 182.816406 C 55.566406 182.902344 56.046875 182.761719 56.515625 182.621094 C 56.761719 182.539062 57.015625 182.476562 57.273438 182.441406 C 57.570312 182.40625 58.304688 182.835938 58.652344 183.324219 C 58.792969 183.515625 58.808594 183.640625 58.792969 183.667969 L 58.742188 183.777344 C 58.0625 185.164062 57.816406 185.953125 57.914062 186.417969 C 58.378906 188.640625 59.28125 188.984375 60.074219 189.285156 C 60.738281 189.539062 61.3125 189.761719 61.757812 191.234375 C 61.191406 191.777344 60.585938 192.289062 59.984375 192.792969 C 59.621094 193.097656 59.246094 193.410156 58.886719 193.726562 C 52.875 199.015625 49.367188 206.644531 46.269531 213.375 L 39.488281 228.113281 C 38.710938 229.8125 37.824219 231.734375 37.664062 233.765625 C 37.496094 235.90625 38.335938 238.171875 39.90625 239.820312 C 41.285156 241.269531 43.035156 242.039062 44.824219 241.984375 C 45.859375 241.953125 46.855469 241.667969 47.820312 241.394531 C 48.746094 241.132812 49.621094 240.882812 50.53125 240.839844 C 53.480469 240.699219 55.824219 242.640625 58.304688 244.695312 C 59.429688 245.625 60.589844 246.585938 61.8125 247.339844 C 62.746094 247.902344 63.730469 248.355469 64.769531 248.695312 C 65.804688 249.035156 66.867188 249.253906 67.949219 249.351562 C 69.035156 249.449219 70.121094 249.425781 71.199219 249.277344 C 72.28125 249.128906 73.328125 248.863281 74.347656 248.476562 C 75.058594 248.199219 75.765625 247.859375 76.449219 247.53125 C 78.246094 246.671875 79.941406 245.855469 81.773438 246.039062 C 83.210938 246.183594 84.476562 246.929688 85.816406 247.714844 C 86.375 248.046875 86.957031 248.390625 87.550781 248.679688 C 90.5 250.128906 93.617188 250.875 96.902344 250.910156 C 99.691406 250.910156 102.429688 250.269531 104.675781 248.703125 C 105.425781 248.179688 106.089844 247.652344 106.734375 247.144531 C 108.25 245.945312 109.558594 244.910156 111.242188 244.527344 C 113.621094 243.988281 116.019531 244.28125 118.34375 244.566406 C 120.804688 244.863281 123.347656 245.175781 125.925781 244.527344 C 128.050781 243.992188 131.542969 242.28125 132.65625 240.15625 C 133.820312 237.941406 132.867188 235.285156 131.785156 232.980469 Z M 105.277344 180.878906 C 105.308594 178.011719 105.429688 174.339844 105.550781 170.789062 C 105.765625 164.441406 105.964844 158.394531 105.707031 155.871094 L 105.855469 155.75 C 107.738281 154.195312 110.890625 151.597656 112.882812 151.152344 C 114.914062 150.699219 117.503906 151.417969 118.320312 153.410156 C 119.160156 155.449219 117.90625 157.53125 116.585938 159.734375 C 116.1875 160.398438 115.789062 161.0625 115.441406 161.738281 L 115.457031 161.648438 C 113.253906 161.339844 110.488281 163.527344 109.402344 164.484375 L 109.917969 165.066406 C 111.898438 163.328125 113.816406 162.347656 115.125 162.402344 C 114.488281 163.828125 114.191406 165.285156 114.792969 166.757812 C 114.945312 167.109375 115.121094 167.449219 115.320312 167.777344 C 115.695312 168.4375 116.054688 169.058594 115.945312 169.691406 C 115.832031 170.371094 115.230469 170.84375 114.589844 171.347656 C 114.152344 171.667969 113.753906 172.035156 113.402344 172.453125 C 111.917969 172.03125 110.449219 172.089844 109.003906 172.632812 L 109.277344 173.363281 C 110.496094 172.90625 111.738281 172.839844 113 173.15625 C 112.472656 174.527344 113.292969 175.96875 113.84375 176.71875 C 114.023438 176.964844 114.214844 177.207031 114.402344 177.441406 C 114.949219 178.117188 115.460938 178.757812 115.695312 179.523438 C 115.871094 180.132812 115.800781 180.714844 115.484375 181.265625 C 115.308594 181.574219 115.046875 181.761719 114.699219 181.832031 C 114.347656 181.886719 113.972656 181.773438 113.574219 181.65625 C 113.335938 181.582031 113.09375 181.519531 112.851562 181.472656 C 111.96875 179.488281 110.578125 178.8125 109.230469 178.164062 C 108.9375 178.023438 108.636719 177.878906 108.339844 177.722656 L 107.972656 178.410156 C 108.285156 178.574219 108.59375 178.726562 108.890625 178.867188 C 110.15625 179.476562 111.261719 180.011719 112.027344 181.546875 C 111.4375 181.78125 110.953125 182.148438 110.574219 182.652344 C 110.527344 182.722656 110.480469 182.792969 110.441406 182.867188 C 109.378906 182.230469 107.367188 181.753906 106.804688 181.789062 L 106.855469 182.570312 C 107.550781 182.523438 110.125 183.347656 110.355469 183.765625 L 110.355469 183.757812 C 110.359375 183.769531 110.359375 183.777344 110.363281 183.789062 L 110.421875 183.90625 C 111.1875 185.46875 111.210938 185.917969 111.183594 186.042969 C 110.863281 187.585938 110.3125 188.25 109.664062 188.804688 C 108.726562 187.976562 107.546875 186.480469 107.199219 185.480469 L 106.460938 185.738281 C 106.847656 186.84375 108.050781 188.382812 109.046875 189.300781 C 108.21875 189.898438 107.617188 190.667969 107.238281 191.617188 C 106.644531 190.507812 106.179688 189.351562 105.847656 188.140625 C 105.226562 185.785156 105.25 183.292969 105.277344 180.878906 Z M 61.289062 189.027344 C 62.265625 188.191406 62.96875 187.167969 63.402344 185.957031 L 62.664062 185.699219 C 62.257812 186.847656 61.578125 187.804688 60.628906 188.570312 L 60.746094 188.71875 C 60.613281 188.660156 60.480469 188.609375 60.347656 188.558594 C 59.625 188.28125 59.054688 188.066406 58.675781 186.261719 C 58.652344 186.136719 58.675781 185.6875 59.441406 184.125 L 59.496094 184.007812 C 59.5 184 59.503906 183.992188 59.503906 183.984375 C 59.738281 183.566406 62.308594 182.742188 63.007812 182.789062 L 63.058594 182.007812 C 62.496094 181.972656 60.484375 182.449219 59.421875 183.085938 C 59.378906 183.011719 59.335938 182.941406 59.289062 182.871094 C 58.90625 182.367188 58.421875 182 57.835938 181.769531 C 58.597656 180.230469 59.703125 179.695312 60.96875 179.085938 C 61.269531 178.945312 61.578125 178.792969 61.886719 178.628906 L 61.519531 177.941406 C 61.226562 178.097656 60.921875 178.246094 60.632812 178.382812 C 59.285156 179.03125 57.894531 179.707031 57.011719 181.691406 C 56.765625 181.738281 56.527344 181.800781 56.289062 181.875 C 55.890625 181.992188 55.515625 182.105469 55.164062 182.050781 C 54.816406 181.980469 54.554688 181.792969 54.378906 181.484375 C 54.0625 180.933594 53.992188 180.351562 54.167969 179.742188 C 54.402344 178.976562 54.914062 178.335938 55.457031 177.660156 C 55.644531 177.425781 55.839844 177.183594 56.019531 176.9375 C 56.566406 176.191406 57.390625 174.746094 56.863281 173.375 C 58.125 173.058594 59.367188 173.125 60.585938 173.582031 L 60.859375 172.851562 C 59.414062 172.308594 57.945312 172.25 56.457031 172.671875 C 56.105469 172.253906 55.710938 171.886719 55.269531 171.566406 C 54.632812 171.0625 54.027344 170.589844 53.914062 169.910156 C 53.808594 169.277344 54.164062 168.65625 54.542969 167.996094 C 54.742188 167.667969 54.917969 167.328125 55.070312 166.976562 C 55.671875 165.503906 55.371094 164.050781 54.738281 162.621094 C 56.042969 162.570312 57.964844 163.546875 59.945312 165.285156 L 60.460938 164.703125 C 59.375 163.746094 56.605469 161.558594 54.40625 161.867188 L 54.417969 161.957031 C 54.074219 161.285156 53.675781 160.617188 53.277344 159.953125 C 51.953125 157.75 50.703125 155.667969 51.542969 153.628906 C 52.359375 151.640625 54.949219 150.917969 56.980469 151.371094 C 58.96875 151.816406 62.121094 154.414062 64.003906 155.96875 L 64.253906 156.171875 C 62.855469 160.859375 63.445312 167.171875 64.015625 173.285156 C 64.316406 176.507812 64.628906 179.835938 64.640625 182.863281 C 64.652344 184.675781 64.660156 186.722656 63.867188 188.457031 C 63.484375 189.253906 62.984375 189.976562 62.371094 190.617188 C 62.0625 189.78125 61.683594 189.320312 61.289062 189.027344 Z M 131.96875 239.792969 C 131.015625 241.605469 127.738281 243.265625 125.734375 243.769531 C 123.296875 244.382812 120.9375 244.097656 118.4375 243.789062 C 116.050781 243.5 113.582031 243.199219 111.070312 243.769531 C 111.035156 243.777344 111.003906 243.785156 110.96875 243.792969 C 111.28125 241.527344 110.710938 239.253906 110.152344 237.046875 L 110.007812 236.480469 C 109.375 233.945312 108.917969 231.285156 109.867188 229.023438 L 109.148438 228.722656 C 108.113281 231.195312 108.585938 234.003906 109.25 236.667969 L 109.394531 237.238281 C 109.964844 239.492188 110.550781 241.820312 110.136719 244.050781 C 108.726562 244.574219 107.5625 245.496094 106.25 246.53125 C 105.617188 247.03125 104.960938 247.550781 104.226562 248.0625 C 99.601562 251.289062 92.691406 250.347656 87.894531 247.984375 C 87.324219 247.703125 86.757812 247.371094 86.210938 247.046875 C 85.8125 246.8125 85.414062 246.578125 85.007812 246.359375 C 85.558594 243.671875 85.609375 240.976562 85.152344 238.269531 L 84.382812 238.398438 C 84.804688 240.9375 84.769531 243.46875 84.285156 245.992188 C 83.515625 245.609375 82.703125 245.367188 81.847656 245.265625 C 81.648438 245.246094 81.449219 245.234375 81.253906 245.234375 C 79.433594 245.234375 77.746094 246.046875 76.109375 246.832031 C 75.441406 247.152344 74.746094 247.484375 74.066406 247.75 C 73.101562 248.117188 72.109375 248.367188 71.089844 248.507812 C 70.070312 248.648438 69.046875 248.671875 68.019531 248.578125 C 66.996094 248.484375 65.992188 248.277344 65.011719 247.957031 C 64.035156 247.636719 63.105469 247.210938 62.222656 246.679688 C 61.054688 245.960938 59.929688 245.03125 58.835938 244.125 L 59.101562 244.074219 C 58.457031 240.734375 59.804688 237.28125 61.117188 234.308594 L 61.363281 233.75 C 62.707031 230.726562 64.09375 227.597656 63.972656 224.253906 L 63.191406 224.285156 C 63.308594 227.445312 61.957031 230.492188 60.652344 233.4375 L 60.40625 233.992188 C 59.117188 236.90625 57.804688 240.269531 58.242188 243.636719 C 56.003906 241.796875 53.660156 240.039062 50.796875 240.054688 C 51.140625 236.160156 53.113281 232.664062 54.804688 230.042969 C 55.441406 229.058594 56.121094 228.070312 56.777344 227.117188 C 58.222656 225.023438 59.714844 222.855469 60.867188 220.527344 L 60.167969 220.179688 C 59.039062 222.457031 57.5625 224.601562 56.136719 226.671875 C 55.472656 227.632812 54.792969 228.621094 54.148438 229.617188 C 52.390625 232.339844 50.335938 235.988281 50.007812 240.101562 C 49.191406 240.21875 48.390625 240.402344 47.605469 240.644531 C 46.644531 240.917969 45.738281 241.179688 44.796875 241.207031 C 43.230469 241.25 41.695312 240.570312 40.46875 239.28125 C 39.046875 237.792969 38.289062 235.75 38.441406 233.828125 C 38.589844 231.933594 39.40625 230.15625 40.195312 228.441406 L 46.976562 213.699219 C 50.039062 207.039062 53.511719 199.492188 59.394531 194.3125 C 59.75 194.003906 60.121094 193.691406 60.480469 193.390625 C 61.398438 192.660156 62.257812 191.867188 63.0625 191.019531 C 63.730469 191.109375 64.332031 191.355469 64.867188 191.761719 C 65.144531 192.03125 65.386719 192.332031 65.59375 192.664062 C 65.734375 192.871094 65.882812 193.089844 66.050781 193.292969 C 67.316406 194.847656 69.453125 195.410156 71.011719 195.820312 L 71.210938 195.066406 C 69.324219 194.570312 67.679688 194.054688 66.65625 192.800781 C 66.507812 192.621094 66.375 192.425781 66.238281 192.222656 C 65.996094 191.839844 65.710938 191.488281 65.382812 191.175781 C 64.859375 190.769531 64.277344 190.488281 63.632812 190.332031 C 64.007812 189.847656 64.320312 189.332031 64.578125 188.78125 C 65.441406 186.894531 65.433594 184.75 65.421875 182.863281 C 65.410156 179.796875 65.097656 176.449219 64.792969 173.214844 C 64.195312 166.800781 63.574219 160.171875 65.273438 155.582031 C 65.308594 155.492188 65.546875 155.277344 66.214844 155.078125 C 68.039062 154.542969 71.640625 154.578125 73.355469 155.867188 C 74.105469 156.421875 74.125 158.492188 74.148438 160.683594 C 74.164062 162.320312 74.183594 164.175781 74.519531 165.742188 C 75.359375 169.699219 78.863281 174.320312 82.738281 174.898438 C 86.460938 175.457031 89.609375 172.742188 91.152344 171.070312 C 94.28125 167.6875 95.257812 162.796875 96.121094 158.484375 C 96.398438 157.109375 96.660156 155.808594 96.972656 154.605469 C 97.097656 154.136719 98.054688 153.789062 99.417969 153.722656 C 101.773438 153.601562 104.488281 154.324219 104.796875 155.148438 C 105.253906 156.382812 105 164.023438 104.769531 170.765625 C 104.652344 174.320312 104.527344 177.996094 104.5 180.871094 C 104.472656 183.335938 104.445312 185.882812 105.09375 188.339844 C 105.261719 188.960938 105.464844 189.566406 105.703125 190.160156 C 105.53125 191.238281 105.34375 192.339844 104.816406 193.277344 C 104.25 194.285156 103.296875 194.941406 102.382812 194.941406 L 102.375 194.941406 C 101.875 194.910156 101.390625 194.804688 100.925781 194.621094 C 100.363281 194.433594 99.78125 194.238281 99.152344 194.257812 C 97.933594 194.296875 96.972656 195.074219 96.039062 195.832031 C 95.097656 196.59375 94.210938 197.3125 93.195312 197.140625 C 92.886719 197.074219 92.589844 196.972656 92.304688 196.832031 C 91.847656 196.636719 91.371094 196.433594 90.832031 196.449219 C 90.207031 196.464844 89.691406 196.765625 89.191406 197.054688 C 89.011719 197.160156 88.839844 197.257812 88.664062 197.34375 C 88.203125 197.566406 87.4375 197.652344 87.207031 197.226562 L 86.519531 197.59375 C 86.792969 198.101562 87.316406 198.3125 87.875 198.3125 C 88.273438 198.308594 88.648438 198.21875 89.003906 198.046875 C 89.207031 197.949219 89.398438 197.835938 89.582031 197.730469 C 90.015625 197.476562 90.425781 197.242188 90.851562 197.230469 C 91.226562 197.21875 91.597656 197.378906 91.992188 197.550781 C 92.335938 197.714844 92.695312 197.835938 93.066406 197.914062 C 94.429688 198.140625 95.496094 197.273438 96.53125 196.4375 C 97.398438 195.734375 98.222656 195.066406 99.175781 195.039062 C 99.667969 195.023438 100.160156 195.1875 100.679688 195.359375 C 101.230469 195.574219 101.796875 195.695312 102.386719 195.722656 C 103.832031 195.71875 104.941406 194.65625 105.496094 193.660156 C 105.871094 192.957031 106.128906 192.210938 106.269531 191.429688 C 107.242188 193.414062 108.527344 195.253906 109.785156 197.050781 L 109.984375 197.332031 C 118.574219 209.617188 125.472656 221.386719 131.082031 233.3125 C 132.132812 235.550781 132.96875 237.886719 131.96875 239.792969 Z M 131.96875 239.792969 " fill-opacity="1" fill-rule="nonzero"/></g><path fill="#ffffff" d="M 77.890625 196.710938 C 77.703125 196.777344 77.527344 196.859375 77.355469 196.9375 C 77.066406 197.089844 76.765625 197.191406 76.445312 197.242188 C 76.210938 197.261719 76.003906 197.195312 75.828125 197.035156 C 75.75 196.976562 75.714844 196.894531 75.71875 196.796875 L 74.941406 196.738281 C 74.921875 197.078125 75.035156 197.363281 75.28125 197.59375 C 75.632812 197.917969 76.046875 198.0625 76.523438 198.019531 C 76.929688 197.960938 77.316406 197.835938 77.679688 197.644531 C 77.84375 197.570312 78 197.5 78.15625 197.441406 C 79.65625 196.898438 81.34375 197.625 82.9375 198.417969 L 83.285156 197.71875 C 81.535156 196.851562 79.679688 196.0625 77.890625 196.710938 Z M 77.890625 196.710938 " fill-opacity="1" fill-rule="nonzero"/><path fill="#ffffff" d="M 69.566406 205.359375 C 69.15625 207.652344 68.730469 210.027344 67.589844 212.078125 C 67.53125 212.183594 67.523438 212.296875 67.566406 212.410156 C 67.609375 212.523438 67.691406 212.597656 67.804688 212.636719 L 68.394531 212.835938 L 68.644531 212.097656 L 68.488281 212.046875 C 69.53125 209.984375 69.9375 207.707031 70.332031 205.496094 L 71.84375 197.082031 L 71.074219 196.945312 Z M 69.566406 205.359375 " fill-opacity="1" fill-rule="nonzero"/><path fill="#ffffff" d="M 81.980469 199.226562 C 81.671875 201.449219 81.542969 203.679688 81.59375 205.921875 L 82.375 205.902344 C 82.324219 203.703125 82.449219 201.515625 82.753906 199.335938 Z M 81.980469 199.226562 " fill-opacity="1" fill-rule="nonzero"/><path fill="#ffffff" d="M 86.53125 200.488281 C 86.523438 202.0625 86.625 203.628906 86.84375 205.1875 L 87.617188 205.082031 C 87.402344 203.558594 87.300781 202.03125 87.3125 200.492188 Z M 86.53125 200.488281 " fill-opacity="1" fill-rule="nonzero"/><path fill="#ffffff" d="M 108.25 206.207031 C 106.835938 202.941406 105.367188 199.566406 102.808594 197.011719 L 102.257812 197.566406 C 104.714844 200.011719 106.148438 203.316406 107.535156 206.515625 C 107.988281 207.558594 108.453125 208.632812 108.953125 209.667969 C 111.214844 214.378906 114.320312 218.660156 117.320312 222.796875 L 117.953125 222.339844 C 114.96875 218.230469 111.886719 213.980469 109.65625 209.328125 C 109.164062 208.308594 108.699219 207.238281 108.25 206.207031 Z M 108.25 206.207031 " fill-opacity="1" fill-rule="nonzero"/><path fill="#ffffff" d="M 80.734375 245.1875 L 81.503906 245.050781 C 80.386719 238.613281 81.894531 231.835938 83.222656 225.859375 L 82.464844 225.6875 C 81.117188 231.738281 79.589844 238.59375 80.734375 245.1875 Z M 80.734375 245.1875 " fill-opacity="1" fill-rule="nonzero"/><g mask="url(#40478843af)"><g transform="matrix(1, 0, 0, 1, 247, 123)"><g clip-path="url(#3425ab3bd0)"><g clip-path="url(#da8fcc64a9)"><path fill="#ffffff" d="M 34.914062 4.925781 C 34.894531 5.03125 34.878906 5.136719 34.867188 5.238281 C 35.894531 4.585938 39.800781 2.347656 45.277344 2.347656 C 48.921875 2.347656 52.550781 3.332031 56.066406 5.277344 C 56.058594 5.160156 56.039062 5.042969 56.015625 4.925781 L 57.578125 4.570312 L 57.585938 4.59375 L 57.523438 4.261719 L 57.199219 4.074219 C 53.332031 1.867188 49.320312 0.746094 45.277344 0.746094 C 38.378906 0.746094 33.847656 3.984375 33.65625 4.125 L 33.410156 4.300781 L 33.351562 4.582031 L 33.355469 4.570312 L 34.914062 4.925781 " fill-opacity="1" fill-rule="nonzero"/></g><g clip-path="url(#0da7b34388)"><path fill="#ffffff" d="M 82.652344 21.613281 L 82.574219 21.1875 L 63.84375 13.355469 L 58.800781 9.261719 L 59.035156 10.164062 C 59.046875 10.222656 59.140625 10.742188 59.179688 11.632812 L 62.761719 14.535156 L 62.683594 14.339844 L 64.175781 13.753906 L 64.863281 15.515625 L 80.40625 22.019531 C 80.976562 21.394531 81.359375 21.132812 81.429688 21.085938 L 82.304688 22.425781 C 82.289062 22.4375 81.921875 22.707031 81.347656 23.398438 C 82.722656 31.042969 88.867188 65.847656 88.652344 77.050781 C 88.441406 88.234375 87.59375 105.824219 87.398438 109.8125 L 77.273438 109.054688 C 77.4375 105.097656 78.117188 87.011719 77.121094 76.347656 C 76.089844 65.296875 74.386719 60.167969 74.054688 59.25 C 74.054688 59.296875 74.054688 59.34375 74.054688 59.390625 L 72.449219 59.390625 C 72.449219 59.359375 72.449219 59.332031 72.449219 59.296875 C 72.261719 60.152344 71.121094 66.136719 72.453125 81.789062 C 73.648438 95.804688 73.839844 106.300781 73.867188 109.195312 L 57.484375 109.195312 C 51.550781 109.195312 46.679688 104.578125 46.269531 98.75 C 46.1875 100.058594 45.910156 101.316406 45.464844 102.488281 C 47.304688 107.339844 51.996094 110.796875 57.484375 110.796875 L 75.476562 110.796875 L 75.476562 109.996094 C 75.476562 109.882812 75.460938 98.203125 74.050781 81.652344 C 73.285156 72.660156 73.351562 66.890625 73.570312 63.515625 C 74.195312 66.238281 74.964844 70.484375 75.527344 76.496094 C 76.632812 88.351562 75.648438 109.546875 75.636719 109.757812 L 75.601562 110.539062 L 88.914062 111.527344 L 88.957031 110.710938 C 88.96875 110.503906 90.015625 89.71875 90.253906 77.078125 C 90.496094 64.371094 82.972656 23.355469 82.652344 21.613281 " fill-opacity="1" fill-rule="nonzero"/></g><path fill="#ffffff" d="M 61.152344 25.890625 L 63.890625 33.21875 L 47.367188 51.113281 C 46.863281 52.636719 46.484375 53.773438 46.296875 54.339844 L 46.296875 54.636719 L 65.738281 33.582031 L 63.207031 26.8125 L 68.488281 24.761719 L 64.863281 15.515625 L 64.175781 13.753906 L 62.683594 14.339844 L 62.761719 14.535156 L 66.410156 23.847656 L 61.152344 25.890625 " fill-opacity="1" fill-rule="nonzero"/><path fill="#ffffff" d="M 72.449219 59.390625 L 74.054688 59.390625 C 74.054688 59.34375 74.054688 59.296875 74.054688 59.25 C 74.074219 34.820312 79.175781 26.03125 81.347656 23.398438 C 81.921875 22.707031 82.289062 22.4375 82.304688 22.425781 L 81.429688 21.085938 C 81.359375 21.132812 80.976562 21.394531 80.40625 22.019531 C 78.050781 24.609375 72.464844 33.46875 72.449219 59.296875 C 72.449219 59.332031 72.449219 59.359375 72.449219 59.390625 " fill-opacity="1" fill-rule="nonzero"/><path fill="#ffffff" d="M 58.265625 44.195312 L 69.808594 44.195312 L 69.808594 42.59375 L 58.265625 42.59375 L 58.265625 44.195312 " fill-opacity="1" fill-rule="nonzero"/><g clip-path="url(#3f1cb2ce6d)"><path fill="#ffffff" d="M 46.269531 98.75 C 46.285156 98.484375 46.296875 98.21875 46.296875 97.953125 L 46.296875 59.40625 L 45.457031 56.84375 L 44.695312 59.109375 L 44.695312 97.953125 C 44.695312 104.152344 39.648438 109.195312 33.449219 109.195312 L 17.0625 109.195312 C 17.09375 106.300781 17.285156 95.808594 18.476562 81.789062 C 19.8125 66.136719 18.671875 60.152344 18.480469 59.296875 C 18.480469 59.332031 18.480469 59.359375 18.480469 59.390625 L 16.878906 59.390625 C 16.878906 59.34375 16.878906 59.296875 16.878906 59.25 C 16.546875 60.167969 14.839844 65.296875 13.808594 76.347656 C 12.8125 87.011719 13.492188 105.097656 13.660156 109.054688 L 3.53125 109.8125 C 3.335938 105.824219 2.488281 88.234375 2.277344 77.050781 C 2.066406 65.835938 8.222656 30.964844 9.589844 23.375 C 9.019531 22.699219 8.648438 22.445312 8.632812 22.433594 L 9.5 21.085938 C 9.574219 21.132812 9.953125 21.394531 10.523438 22.019531 L 26.066406 15.515625 L 26.757812 13.753906 L 28.246094 14.339844 L 28.171875 14.535156 L 31.75 11.632812 C 31.789062 10.742188 31.886719 10.222656 31.898438 10.164062 L 31.90625 10.109375 L 32.128906 9.261719 L 27.085938 13.355469 L 8.359375 21.1875 L 8.28125 21.613281 C 7.960938 23.355469 0.4375 64.371094 0.675781 77.078125 C 0.914062 89.71875 1.964844 110.503906 1.972656 110.710938 L 2.015625 111.527344 L 15.328125 110.539062 L 15.292969 109.757812 C 15.28125 109.546875 14.296875 88.351562 15.402344 76.496094 C 15.964844 70.484375 16.738281 66.238281 17.359375 63.515625 C 17.578125 66.890625 17.648438 72.660156 16.882812 81.652344 C 15.472656 98.203125 15.457031 109.882812 15.457031 109.996094 L 15.457031 110.796875 L 33.449219 110.796875 C 38.9375 110.796875 43.628906 107.339844 45.464844 102.488281 C 45.910156 101.316406 46.1875 100.058594 46.269531 98.75 " fill-opacity="1" fill-rule="nonzero"/></g><path fill="#ffffff" d="M 44.90625 13.867188 L 45.121094 14.0625 L 45.8125 14.0625 L 46.023438 13.867188 L 46.210938 14.066406 C 46.402344 14.074219 46.589844 14.09375 46.769531 14.136719 C 47.878906 13.402344 49.96875 12.339844 53.179688 11.925781 C 54.734375 10.949219 56.105469 9.769531 56.917969 8.386719 L 57.449219 10.429688 C 57.449219 10.402344 57.449219 10.378906 57.449219 10.355469 L 59.046875 10.269531 C 59.230469 13.679688 58.121094 16.289062 56.75 18.179688 C 56.585938 18.753906 56.398438 19.347656 56.171875 19.964844 C 54.929688 23.34375 47.894531 44.457031 45.464844 51.761719 C 43.128906 44.734375 36.019531 23.386719 34.761719 19.964844 C 34.535156 19.347656 34.34375 18.753906 34.179688 18.179688 C 32.8125 16.289062 31.703125 13.679688 31.882812 10.269531 L 33.484375 10.355469 C 33.480469 10.378906 33.480469 10.402344 33.480469 10.429688 L 34.011719 8.386719 C 34.832031 9.78125 36.21875 10.96875 37.789062 11.949219 C 40.90625 12.378906 42.945312 13.417969 44.03125 14.136719 C 44.246094 14.085938 44.464844 14.0625 44.6875 14.0625 L 44.726562 14.0625 Z M 31.898438 10.164062 C 31.886719 10.222656 31.789062 10.742188 31.75 11.632812 C 31.671875 13.390625 31.8125 16.589844 33.257812 20.515625 C 34.445312 23.75 40.917969 43.164062 43.5625 51.113281 L 46.082031 53.84375 L 44.90625 54.933594 L 44.636719 54.636719 L 44.636719 59.28125 L 44.695312 59.109375 L 45.457031 56.84375 L 46.296875 59.40625 L 46.296875 54.339844 C 46.484375 53.773438 46.863281 52.636719 47.367188 51.113281 C 50.078125 42.96875 56.5 23.710938 57.675781 20.515625 C 59.117188 16.589844 59.257812 13.390625 59.179688 11.632812 C 59.140625 10.742188 59.046875 10.222656 59.035156 10.164062 L 58.800781 9.261719 L 57.585938 4.59375 L 57.578125 4.570312 L 56.015625 4.925781 C 56.039062 5.042969 56.058594 5.160156 56.066406 5.277344 C 56.410156 8.878906 50.898438 11.898438 45.464844 13.5625 C 40.011719 11.890625 34.488281 8.859375 34.867188 5.238281 C 34.878906 5.136719 34.894531 5.03125 34.914062 4.925781 L 33.355469 4.570312 L 33.351562 4.582031 L 32.128906 9.261719 L 31.90625 10.109375 L 31.898438 10.164062 " fill-opacity="1" fill-rule="nonzero"/><path fill="#ffffff" d="M 39.199219 22.40625 L 39.765625 21.792969 C 39.371094 21.894531 38.953125 21.984375 38.507812 22.0625 C 38.601562 22.113281 38.660156 22.140625 38.667969 22.144531 L 39.199219 22.40625 " fill-opacity="1" fill-rule="nonzero"/><path fill="#ffffff" d="M 34.730469 18.132812 L 34.6875 18.132812 L 34.679688 17.105469 L 34.679688 17.050781 L 34.675781 15.992188 L 34.6875 15.992188 C 33.90625 14.515625 33.375 12.671875 33.480469 10.429688 C 33.480469 10.402344 33.480469 10.378906 33.484375 10.355469 L 31.882812 10.269531 C 31.703125 13.679688 32.8125 16.289062 34.179688 18.179688 C 34.390625 18.46875 34.605469 18.742188 34.824219 18.996094 C 34.789062 18.714844 34.753906 18.421875 34.730469 18.132812 " fill-opacity="1" fill-rule="nonzero"/><path fill="#ffffff" d="M 44.90625 13.867188 L 44.726562 14.0625 L 45.121094 14.0625 Z M 44.90625 13.867188 " fill-opacity="1" fill-rule="nonzero"/><path fill="#ffffff" d="M 27.726562 26.8125 L 25.195312 33.582031 L 44.636719 54.636719 L 44.90625 54.933594 L 46.082031 53.84375 L 43.5625 51.113281 L 27.039062 33.21875 L 29.78125 25.890625 L 24.523438 23.847656 L 28.171875 14.535156 L 28.246094 14.339844 L 26.757812 13.753906 L 26.066406 15.515625 L 22.445312 24.761719 L 27.726562 26.8125 " fill-opacity="1" fill-rule="nonzero"/><path fill="#ffffff" d="M 9.5 21.085938 L 8.632812 22.433594 C 8.648438 22.445312 9.019531 22.699219 9.589844 23.375 C 11.757812 25.941406 16.859375 34.601562 16.878906 59.25 C 16.878906 59.296875 16.878906 59.34375 16.878906 59.390625 L 18.480469 59.390625 C 18.480469 59.359375 18.480469 59.332031 18.480469 59.296875 C 18.46875 33.46875 12.882812 24.609375 10.523438 22.019531 C 9.953125 21.394531 9.574219 21.132812 9.5 21.085938 " fill-opacity="1" fill-rule="nonzero"/><path fill="#ffffff" d="M 52.265625 22.144531 C 52.269531 22.144531 52.316406 22.121094 52.390625 22.078125 C 51.976562 22.007812 51.578125 21.925781 51.203125 21.835938 L 51.730469 22.40625 L 52.265625 22.144531 " fill-opacity="1" fill-rule="nonzero"/><path fill="#ffffff" d="M 56.117188 16.257812 L 56.125 17.015625 L 56.125 18.132812 L 56.074219 18.132812 C 56.042969 18.484375 56.003906 18.835938 55.957031 19.171875 C 56.226562 18.867188 56.492188 18.539062 56.75 18.179688 C 58.121094 16.289062 59.230469 13.679688 59.046875 10.269531 L 57.449219 10.355469 C 57.449219 10.378906 57.449219 10.402344 57.449219 10.429688 C 57.5625 12.820312 56.96875 14.746094 56.117188 16.257812 " fill-opacity="1" fill-rule="nonzero"/><path fill="#ffffff" d="M 46.210938 14.066406 L 46.023438 13.867188 L 45.8125 14.0625 L 46.117188 14.0625 C 46.148438 14.0625 46.179688 14.066406 46.210938 14.066406 " fill-opacity="1" fill-rule="nonzero"/><path fill="#ffffff" d="M 45.496094 25.691406 C 44.816406 25.691406 44.265625 26.242188 44.265625 26.917969 C 44.265625 27.597656 44.816406 28.148438 45.496094 28.148438 C 46.175781 28.148438 46.726562 27.597656 46.726562 26.917969 C 46.726562 26.242188 46.175781 25.691406 45.496094 25.691406 " fill-opacity="1" fill-rule="nonzero"/><path fill="#ffffff" d="M 45.496094 38.117188 C 44.816406 38.117188 44.265625 38.667969 44.265625 39.347656 C 44.265625 40.027344 44.816406 40.578125 45.496094 40.578125 C 46.175781 40.578125 46.726562 40.027344 46.726562 39.347656 C 46.726562 38.667969 46.175781 38.117188 45.496094 38.117188 " fill-opacity="1" fill-rule="nonzero"/><path fill="#ffffff" d="M 5.992188 105.972656 C 5.3125 105.972656 4.761719 106.523438 4.761719 107.203125 C 4.761719 107.882812 5.3125 108.433594 5.992188 108.433594 C 6.671875 108.433594 7.222656 107.882812 7.222656 107.203125 C 7.222656 106.523438 6.671875 105.972656 5.992188 105.972656 " fill-opacity="1" fill-rule="nonzero"/><path fill="#ffffff" d="M 5.992188 100.382812 C 5.3125 100.382812 4.761719 100.933594 4.761719 101.609375 C 4.761719 102.289062 5.3125 102.839844 5.992188 102.839844 C 6.671875 102.839844 7.222656 102.289062 7.222656 101.609375 C 7.222656 100.933594 6.671875 100.382812 5.992188 100.382812 " fill-opacity="1" fill-rule="nonzero"/><path fill="#ffffff" d="M 5.992188 94.789062 C 5.3125 94.789062 4.761719 95.339844 4.761719 96.019531 C 4.761719 96.699219 5.3125 97.25 5.992188 97.25 C 6.671875 97.25 7.222656 96.699219 7.222656 96.019531 C 7.222656 95.339844 6.671875 94.789062 5.992188 94.789062 " fill-opacity="1" fill-rule="nonzero"/><path fill="#ffffff" d="M 84.8125 108.433594 C 85.492188 108.433594 86.042969 107.882812 86.042969 107.203125 C 86.042969 106.523438 85.492188 105.972656 84.8125 105.972656 C 84.136719 105.972656 83.585938 106.523438 83.585938 107.203125 C 83.585938 107.882812 84.136719 108.433594 84.8125 108.433594 " fill-opacity="1" fill-rule="nonzero"/><path fill="#ffffff" d="M 84.8125 102.839844 C 85.492188 102.839844 86.042969 102.289062 86.042969 101.609375 C 86.042969 100.933594 85.492188 100.382812 84.8125 100.382812 C 84.136719 100.382812 83.585938 100.933594 83.585938 101.609375 C 83.585938 102.289062 84.136719 102.839844 84.8125 102.839844 " fill-opacity="1" fill-rule="nonzero"/><path fill="#ffffff" d="M 84.8125 97.25 C 85.492188 97.25 86.042969 96.699219 86.042969 96.019531 C 86.042969 95.339844 85.492188 94.789062 84.8125 94.789062 C 84.136719 94.789062 83.585938 95.339844 83.585938 96.019531 C 83.585938 96.699219 84.136719 97.25 84.8125 97.25 " fill-opacity="1" fill-rule="nonzero"/><path fill="#ffffff" d="M 53.457031 13.503906 C 53.808594 13.460938 54.136719 13.703125 54.195312 14.050781 C 54.328125 14.789062 54.488281 15.867188 54.519531 16.816406 L 54.523438 17.007812 L 54.523438 17.152344 L 54.519531 17.304688 C 54.488281 18.253906 54.328125 19.332031 54.195312 20.074219 C 54.140625 20.390625 53.863281 20.625 53.542969 20.625 C 53.515625 20.625 53.484375 20.621094 53.460938 20.617188 C 50.351562 20.234375 48.429688 19.179688 47.5625 18.585938 L 46.882812 18.125 L 46.4375 18.8125 C 46.207031 19.171875 45.828125 19.375 45.402344 19.375 C 44.976562 19.375 44.597656 19.171875 44.367188 18.8125 L 43.921875 18.125 L 43.242188 18.585938 C 42.375 19.179688 40.449219 20.234375 37.34375 20.617188 C 36.992188 20.660156 36.667969 20.417969 36.605469 20.074219 C 36.476562 19.332031 36.3125 18.253906 36.285156 17.304688 L 36.28125 17.113281 L 36.28125 16.972656 L 36.285156 16.816406 C 36.3125 15.867188 36.476562 14.789062 36.605469 14.050781 C 36.664062 13.730469 36.9375 13.5 37.261719 13.5 C 37.289062 13.5 37.316406 13.5 37.34375 13.503906 C 40.609375 13.910156 42.554688 15.035156 43.425781 15.667969 L 43.792969 15.929688 L 44.207031 15.757812 C 44.355469 15.695312 44.519531 15.664062 44.6875 15.664062 L 46.117188 15.664062 C 46.285156 15.664062 46.445312 15.695312 46.597656 15.757812 L 47.011719 15.929688 L 47.375 15.667969 C 48.246094 15.035156 50.195312 13.910156 53.457031 13.503906 Z M 44.03125 14.136719 C 42.945312 13.417969 40.90625 12.378906 37.789062 11.949219 C 37.707031 11.9375 37.625 11.925781 37.539062 11.914062 C 37.445312 11.902344 37.351562 11.898438 37.261719 11.898438 C 36.160156 11.898438 35.222656 12.683594 35.03125 13.769531 C 34.925781 14.367188 34.800781 15.179688 34.730469 15.992188 L 34.675781 15.992188 L 34.679688 17.050781 L 34.679688 17.105469 L 34.6875 18.132812 L 34.730469 18.132812 C 34.753906 18.421875 34.789062 18.714844 34.824219 18.996094 C 34.886719 19.5 34.960938 19.96875 35.03125 20.351562 C 35.238281 21.527344 36.316406 22.355469 37.539062 22.207031 C 37.875 22.167969 38.199219 22.117188 38.507812 22.0625 C 38.953125 21.984375 39.371094 21.894531 39.765625 21.792969 C 41.464844 21.363281 42.71875 20.773438 43.546875 20.285156 C 44.054688 20.726562 44.707031 20.976562 45.402344 20.976562 C 46.09375 20.976562 46.75 20.726562 47.257812 20.285156 C 48.113281 20.789062 49.421875 21.402344 51.203125 21.835938 C 51.578125 21.925781 51.976562 22.007812 52.390625 22.078125 C 52.675781 22.125 52.964844 22.171875 53.265625 22.207031 C 53.355469 22.21875 53.449219 22.226562 53.542969 22.226562 C 54.644531 22.226562 55.582031 21.4375 55.773438 20.351562 C 55.832031 20.015625 55.898438 19.605469 55.957031 19.171875 C 56.003906 18.835938 56.042969 18.484375 56.074219 18.132812 L 56.125 18.132812 L 56.125 17.015625 L 56.117188 16.257812 L 56.117188 15.992188 L 56.074219 15.992188 C 56.003906 15.179688 55.878906 14.367188 55.773438 13.769531 C 55.566406 12.59375 54.484375 11.769531 53.261719 11.914062 C 53.234375 11.917969 53.207031 11.921875 53.179688 11.925781 C 49.96875 12.339844 47.878906 13.402344 46.769531 14.136719 C 46.589844 14.09375 46.402344 14.074219 46.210938 14.066406 C 46.179688 14.066406 46.148438 14.0625 46.117188 14.0625 L 44.6875 14.0625 C 44.464844 14.0625 44.246094 14.085938 44.03125 14.136719 " fill-opacity="1" fill-rule="nonzero"/></g></g></g></svg>