<svg xmlns="http://www.w3.org/2000/svg" xmlns:xlink="http://www.w3.org/1999/xlink" width="500" zoomAndPan="magnify" viewBox="0 0 375 374.999991" height="500" preserveAspectRatio="xMidYMid meet" version="1.0"><defs><clipPath id="42d4bbe7b8"><path d="M 89 101 L 215 101 L 215 337.5 L 89 337.5 Z M 89 101 " clip-rule="nonzero"/></clipPath><clipPath id="e47082c2fd"><path d="M 124 37.5 L 182 37.5 L 182 95 L 124 95 Z M 124 37.5 " clip-rule="nonzero"/></clipPath></defs><g clip-path="url(#42d4bbe7b8)"><path fill="#a6a6a6" d="M 177.144531 243.753906 C 175.605469 212.566406 179.0625 188.6875 187.1875 173.695312 L 187.1875 132.222656 C 190.273438 138.640625 193.171875 148.617188 194.742188 163.597656 C 199.402344 159.160156 204.929688 156.511719 210.839844 155.957031 C 211.1875 155.917969 211.625 155.886719 212.066406 155.886719 L 212.304688 155.875 C 212.609375 155.851562 212.910156 155.832031 213.21875 155.832031 C 213.539062 155.832031 213.859375 155.851562 214.179688 155.878906 C 213.976562 154.382812 213.761719 152.917969 213.527344 151.480469 C 207.457031 146.046875 203.625 138.160156 203.625 129.386719 C 203.625 126.816406 203.953125 124.324219 204.570312 121.949219 C 202 117.023438 199.011719 112.941406 195.59375 109.730469 C 188.503906 103.066406 181.578125 101.929688 178.03125 101.847656 C 177.832031 101.835938 177.636719 101.820312 177.433594 101.820312 L 128.683594 101.820312 C 128.476562 101.820312 128.273438 101.835938 128.066406 101.851562 C 124.511719 101.933594 117.601562 103.082031 110.523438 109.730469 C 94.253906 125.015625 87.585938 159.796875 90.707031 213.105469 C 91.019531 218.472656 95.46875 222.613281 100.773438 222.613281 C 100.972656 222.613281 101.171875 222.605469 101.375 222.59375 C 106.9375 222.269531 111.1875 217.492188 110.859375 211.925781 C 108.265625 167.585938 113.292969 143.953125 118.933594 132.21875 L 118.933594 321.53125 C 118.933594 330.148438 125.917969 337.132812 134.53125 337.132812 C 143.148438 337.132812 150.132812 330.148438 150.132812 321.53125 L 150.132812 207.625 L 155.984375 207.625 L 155.984375 321.53125 C 155.984375 330.148438 162.96875 337.132812 171.582031 337.132812 C 180.199219 337.132812 187.1875 330.148438 187.1875 321.53125 L 187.1875 254.984375 C 181.695312 254.097656 177.429688 249.488281 177.144531 243.753906 Z M 177.144531 243.753906 " fill-opacity="1" fill-rule="nonzero"/></g><g clip-path="url(#e47082c2fd)"><path fill="#a6a6a6" d="M 181.449219 66.238281 C 181.449219 67.167969 181.40625 68.09375 181.3125 69.019531 C 181.222656 69.945312 181.085938 70.863281 180.90625 71.777344 C 180.722656 72.6875 180.5 73.589844 180.226562 74.480469 C 179.957031 75.367188 179.644531 76.242188 179.289062 77.101562 C 178.933594 77.960938 178.535156 78.800781 178.097656 79.621094 C 177.660156 80.441406 177.183594 81.238281 176.664062 82.011719 C 176.148438 82.785156 175.597656 83.53125 175.007812 84.25 C 174.417969 84.96875 173.792969 85.65625 173.136719 86.3125 C 172.476562 86.96875 171.789062 87.59375 171.070312 88.183594 C 170.351562 88.773438 169.605469 89.328125 168.832031 89.84375 C 168.058594 90.359375 167.261719 90.839844 166.441406 91.277344 C 165.621094 91.714844 164.785156 92.113281 163.925781 92.46875 C 163.066406 92.824219 162.191406 93.136719 161.300781 93.40625 C 160.410156 93.675781 159.511719 93.902344 158.597656 94.082031 C 157.6875 94.265625 156.769531 94.402344 155.84375 94.492188 C 154.917969 94.582031 153.988281 94.628906 153.058594 94.628906 C 152.128906 94.628906 151.203125 94.582031 150.277344 94.492188 C 149.351562 94.402344 148.433594 94.265625 147.519531 94.082031 C 146.609375 93.902344 145.707031 93.675781 144.816406 93.40625 C 143.929688 93.136719 143.054688 92.824219 142.195312 92.46875 C 141.335938 92.113281 140.496094 91.714844 139.675781 91.277344 C 138.855469 90.839844 138.058594 90.359375 137.285156 89.84375 C 136.511719 89.328125 135.765625 88.773438 135.046875 88.183594 C 134.328125 87.59375 133.640625 86.96875 132.984375 86.3125 C 132.328125 85.65625 131.703125 84.96875 131.113281 84.25 C 130.523438 83.53125 129.96875 82.785156 129.453125 82.011719 C 128.9375 81.238281 128.457031 80.441406 128.019531 79.621094 C 127.582031 78.800781 127.183594 77.960938 126.828125 77.101562 C 126.472656 76.242188 126.160156 75.367188 125.890625 74.480469 C 125.621094 73.589844 125.394531 72.6875 125.214844 71.777344 C 125.03125 70.863281 124.894531 69.945312 124.804688 69.019531 C 124.714844 68.09375 124.667969 67.167969 124.667969 66.238281 C 124.667969 65.308594 124.714844 64.378906 124.804688 63.453125 C 124.894531 62.527344 125.03125 61.609375 125.214844 60.699219 C 125.394531 59.785156 125.621094 58.886719 125.890625 57.996094 C 126.160156 57.105469 126.472656 56.230469 126.828125 55.371094 C 127.183594 54.511719 127.582031 53.675781 128.019531 52.855469 C 128.457031 52.035156 128.9375 51.238281 129.453125 50.464844 C 129.96875 49.691406 130.523438 48.945312 131.113281 48.226562 C 131.703125 47.507812 132.328125 46.820312 132.984375 46.160156 C 133.640625 45.503906 134.328125 44.878906 135.046875 44.289062 C 135.765625 43.699219 136.511719 43.148438 137.285156 42.632812 C 138.058594 42.113281 138.855469 41.636719 139.675781 41.199219 C 140.496094 40.761719 141.335938 40.363281 142.195312 40.007812 C 143.054688 39.652344 143.929688 39.339844 144.816406 39.070312 C 145.707031 38.796875 146.609375 38.574219 147.519531 38.390625 C 148.433594 38.210938 149.351562 38.074219 150.277344 37.984375 C 151.203125 37.890625 152.128906 37.847656 153.058594 37.847656 C 153.988281 37.847656 154.917969 37.890625 155.84375 37.984375 C 156.769531 38.074219 157.6875 38.210938 158.597656 38.390625 C 159.511719 38.574219 160.410156 38.796875 161.300781 39.070312 C 162.191406 39.339844 163.066406 39.652344 163.925781 40.007812 C 164.785156 40.363281 165.621094 40.761719 166.441406 41.199219 C 167.261719 41.636719 168.058594 42.113281 168.832031 42.632812 C 169.605469 43.148438 170.351562 43.699219 171.070312 44.289062 C 171.789062 44.878906 172.476562 45.503906 173.136719 46.160156 C 173.792969 46.820312 174.417969 47.507812 175.007812 48.226562 C 175.597656 48.945312 176.148438 49.691406 176.664062 50.464844 C 177.183594 51.238281 177.660156 52.035156 178.097656 52.855469 C 178.535156 53.675781 178.933594 54.511719 179.289062 55.371094 C 179.644531 56.230469 179.957031 57.105469 180.226562 57.996094 C 180.5 58.886719 180.722656 59.785156 180.90625 60.699219 C 181.085938 61.609375 181.222656 62.527344 181.3125 63.453125 C 181.40625 64.378906 181.449219 65.308594 181.449219 66.238281 Z M 181.449219 66.238281 " fill-opacity="1" fill-rule="nonzero"/></g><path fill="#a6a6a6" d="M 214.136719 159.671875 C 213.832031 159.636719 213.527344 159.617188 213.21875 159.617188 C 212.878906 159.617188 212.546875 159.65625 212.207031 159.671875 L 212.070312 159.671875 C 211.773438 159.671875 211.484375 159.691406 211.195312 159.726562 C 205.714844 160.242188 200.605469 162.835938 196.324219 167.335938 C 184.40625 179.855469 179.082031 206.21875 180.925781 243.566406 C 181.144531 247.953125 184.769531 251.363281 189.113281 251.363281 C 189.246094 251.363281 189.386719 251.363281 189.523438 251.355469 C 194.046875 251.128906 197.535156 247.28125 197.3125 242.757812 C 195.640625 208.929688 200.515625 192.132812 204.5 184.21875 L 204.5 323.550781 C 204.5 330.78125 210.363281 336.644531 217.59375 336.644531 C 224.820312 336.644531 230.683594 330.78125 230.683594 323.550781 L 230.683594 261.199219 L 235.875 261.199219 L 235.875 323.550781 C 235.875 330.78125 241.734375 336.644531 248.96875 336.644531 C 256.195312 336.644531 262.058594 330.78125 262.058594 323.550781 L 262.058594 184.21875 C 266.042969 192.132812 270.917969 208.933594 269.25 242.757812 C 269.023438 247.28125 272.511719 251.128906 277.035156 251.355469 C 277.171875 251.359375 277.3125 251.363281 277.445312 251.363281 C 281.789062 251.363281 285.414062 247.953125 285.632812 243.566406 C 287.476562 206.21875 282.152344 179.855469 270.234375 167.335938 C 265.949219 162.835938 260.84375 160.242188 255.363281 159.726562 C 255.074219 159.691406 254.785156 159.671875 254.488281 159.671875 L 254.351562 159.671875 C 254.011719 159.65625 253.679688 159.617188 253.339844 159.617188 C 253.03125 159.617188 252.726562 159.636719 252.425781 159.671875 Z M 214.136719 159.671875 " fill-opacity="1" fill-rule="nonzero"/><path fill="#a6a6a6" d="M 259.148438 129.386719 C 259.148438 130.234375 259.105469 131.078125 259.023438 131.921875 C 258.941406 132.765625 258.816406 133.601562 258.648438 134.433594 C 258.484375 135.261719 258.277344 136.085938 258.035156 136.894531 C 257.789062 137.707031 257.503906 138.503906 257.179688 139.285156 C 256.855469 140.066406 256.492188 140.832031 256.09375 141.578125 C 255.691406 142.328125 255.257812 143.054688 254.789062 143.757812 C 254.316406 144.460938 253.8125 145.140625 253.277344 145.796875 C 252.738281 146.453125 252.167969 147.078125 251.570312 147.675781 C 250.972656 148.277344 250.34375 148.84375 249.691406 149.382812 C 249.035156 149.917969 248.355469 150.421875 247.652344 150.894531 C 246.945312 151.363281 246.21875 151.800781 245.472656 152.199219 C 244.726562 152.597656 243.960938 152.960938 243.179688 153.285156 C 242.394531 153.609375 241.597656 153.894531 240.789062 154.140625 C 239.976562 154.386719 239.15625 154.589844 238.324219 154.757812 C 237.496094 154.921875 236.65625 155.046875 235.816406 155.128906 C 234.972656 155.210938 234.125 155.253906 233.28125 155.253906 C 232.433594 155.253906 231.585938 155.210938 230.742188 155.128906 C 229.902344 155.046875 229.0625 154.921875 228.234375 154.757812 C 227.402344 154.589844 226.582031 154.386719 225.769531 154.140625 C 224.960938 153.894531 224.164062 153.609375 223.378906 153.285156 C 222.597656 152.960938 221.832031 152.597656 221.085938 152.199219 C 220.339844 151.800781 219.613281 151.363281 218.90625 150.894531 C 218.203125 150.421875 217.523438 149.917969 216.871094 149.382812 C 216.214844 148.84375 215.585938 148.277344 214.988281 147.675781 C 214.390625 147.078125 213.820312 146.453125 213.285156 145.796875 C 212.746094 145.140625 212.242188 144.460938 211.769531 143.757812 C 211.300781 143.054688 210.867188 142.328125 210.464844 141.578125 C 210.066406 140.832031 209.703125 140.066406 209.378906 139.285156 C 209.054688 138.503906 208.773438 137.707031 208.527344 136.894531 C 208.28125 136.085938 208.074219 135.261719 207.910156 134.433594 C 207.742188 133.601562 207.621094 132.765625 207.535156 131.921875 C 207.453125 131.078125 207.410156 130.234375 207.410156 129.386719 C 207.410156 128.539062 207.453125 127.695312 207.535156 126.851562 C 207.621094 126.007812 207.742188 125.171875 207.910156 124.339844 C 208.074219 123.507812 208.28125 122.6875 208.527344 121.878906 C 208.773438 121.066406 209.054688 120.269531 209.378906 119.488281 C 209.703125 118.703125 210.066406 117.9375 210.464844 117.191406 C 210.867188 116.445312 211.300781 115.71875 211.769531 115.015625 C 212.242188 114.308594 212.746094 113.628906 213.285156 112.976562 C 213.820312 112.320312 214.390625 111.695312 214.988281 111.09375 C 215.585938 110.496094 216.214844 109.925781 216.871094 109.390625 C 217.523438 108.851562 218.203125 108.347656 218.90625 107.878906 C 219.613281 107.40625 220.339844 106.972656 221.085938 106.574219 C 221.832031 106.171875 222.597656 105.8125 223.378906 105.488281 C 224.164062 105.164062 224.960938 104.878906 225.769531 104.632812 C 226.582031 104.386719 227.402344 104.179688 228.234375 104.015625 C 229.0625 103.851562 229.902344 103.726562 230.742188 103.644531 C 231.585938 103.558594 232.433594 103.519531 233.28125 103.519531 C 234.125 103.519531 234.972656 103.558594 235.816406 103.644531 C 236.65625 103.726562 237.496094 103.851562 238.324219 104.015625 C 239.15625 104.179688 239.976562 104.386719 240.789062 104.632812 C 241.597656 104.878906 242.394531 105.164062 243.179688 105.488281 C 243.960938 105.8125 244.726562 106.171875 245.472656 106.574219 C 246.21875 106.972656 246.945312 107.40625 247.652344 107.878906 C 248.355469 108.347656 249.035156 108.851562 249.691406 109.390625 C 250.34375 109.925781 250.972656 110.496094 251.570312 111.09375 C 252.167969 111.695312 252.738281 112.320312 253.277344 112.976562 C 253.8125 113.628906 254.316406 114.308594 254.789062 115.015625 C 255.257812 115.71875 255.691406 116.445312 256.09375 117.191406 C 256.492188 117.9375 256.855469 118.703125 257.179688 119.488281 C 257.503906 120.269531 257.789062 121.066406 258.035156 121.878906 C 258.277344 122.6875 258.484375 123.507812 258.648438 124.339844 C 258.816406 125.171875 258.941406 126.007812 259.023438 126.851562 C 259.105469 127.695312 259.148438 128.539062 259.148438 129.386719 Z M 259.148438 129.386719 " fill-opacity="1" fill-rule="nonzero"/></svg>