<svg xmlns="http://www.w3.org/2000/svg" xmlns:xlink="http://www.w3.org/1999/xlink" width="500" zoomAndPan="magnify" viewBox="0 0 375 374.999991" height="500" preserveAspectRatio="xMidYMid meet" version="1.0"><defs><clipPath id="3de122cb81"><path d="M 102 254 L 111 254 L 111 326.578125 L 102 326.578125 Z M 102 254 " clip-rule="nonzero"/></clipPath><clipPath id="7faf4f82ea"><path d="M 120 48.328125 L 129 48.328125 L 129 99 L 120 99 Z M 120 48.328125 " clip-rule="nonzero"/></clipPath></defs><path fill="#a6a6a6" d="M 106.164062 262.734375 C 103.890625 262.734375 102.046875 260.890625 102.046875 258.617188 L 102.046875 194.667969 C 102.046875 192.390625 103.890625 190.550781 106.164062 190.550781 C 108.441406 190.550781 110.28125 192.390625 110.28125 194.667969 L 110.28125 258.617188 C 110.28125 260.890625 108.441406 262.734375 106.164062 262.734375 " fill-opacity="1" fill-rule="nonzero"/><path fill="#a6a6a6" d="M 106.164062 224.789062 C 105.113281 224.789062 104.054688 224.382812 103.25 223.582031 L 86.738281 207.070312 C 85.132812 205.460938 85.132812 202.851562 86.738281 201.242188 C 88.347656 199.640625 90.957031 199.640625 92.566406 201.242188 L 106.164062 214.84375 L 119.765625 201.242188 C 121.375 199.640625 123.984375 199.640625 125.589844 201.242188 C 127.199219 202.851562 127.199219 205.460938 125.589844 207.070312 L 109.078125 223.582031 C 108.273438 224.382812 107.21875 224.789062 106.164062 224.789062 " fill-opacity="1" fill-rule="nonzero"/><path fill="#a6a6a6" d="M 106.160156 262.738281 C 105.460938 262.738281 104.753906 262.558594 104.105469 262.183594 L 48.726562 230.210938 C 46.753906 229.070312 46.078125 226.550781 47.214844 224.585938 C 48.355469 222.613281 50.871094 221.9375 52.84375 223.074219 L 108.226562 255.046875 C 110.195312 256.1875 110.867188 258.707031 109.730469 260.675781 C 108.96875 261.996094 107.585938 262.738281 106.160156 262.738281 " fill-opacity="1" fill-rule="nonzero"/><path fill="#a6a6a6" d="M 50.742188 249.808594 C 48.925781 249.808594 47.261719 248.59375 46.765625 246.753906 C 46.179688 244.554688 47.484375 242.296875 49.679688 241.707031 L 68.257812 236.730469 L 63.277344 218.152344 C 62.691406 215.953125 63.996094 213.695312 66.195312 213.105469 C 68.386719 212.511719 70.644531 213.824219 71.238281 216.019531 L 77.28125 238.578125 C 77.871094 240.773438 76.566406 243.03125 74.367188 243.621094 L 51.8125 249.667969 C 51.453125 249.761719 51.09375 249.808594 50.742188 249.808594 " fill-opacity="1" fill-rule="nonzero"/><path fill="#a6a6a6" d="M 50.789062 294.710938 C 49.363281 294.710938 47.980469 293.972656 47.214844 292.648438 C 46.078125 290.679688 46.753906 288.160156 48.726562 287.023438 L 104.105469 255.046875 C 106.078125 253.910156 108.59375 254.589844 109.730469 256.558594 C 110.867188 258.523438 110.195312 261.042969 108.226562 262.183594 L 52.84375 294.15625 C 52.191406 294.53125 51.484375 294.710938 50.789062 294.710938 " fill-opacity="1" fill-rule="nonzero"/><path fill="#a6a6a6" d="M 67.261719 304.265625 C 66.910156 304.265625 66.550781 304.222656 66.195312 304.125 C 63.996094 303.535156 62.691406 301.277344 63.277344 299.082031 L 68.257812 280.5 L 49.679688 275.523438 C 47.484375 274.933594 46.179688 272.675781 46.765625 270.480469 C 47.355469 268.28125 49.621094 266.976562 51.8125 267.566406 L 74.367188 273.609375 C 76.566406 274.199219 77.871094 276.457031 77.28125 278.652344 L 71.238281 301.214844 C 70.742188 303.054688 69.078125 304.265625 67.261719 304.265625 " fill-opacity="1" fill-rule="nonzero"/><g clip-path="url(#3de122cb81)"><path fill="#a6a6a6" d="M 106.164062 326.679688 C 103.890625 326.679688 102.046875 324.839844 102.046875 322.5625 L 102.046875 258.617188 C 102.046875 256.339844 103.890625 254.5 106.164062 254.5 C 108.441406 254.5 110.28125 256.339844 110.28125 258.617188 L 110.28125 322.5625 C 110.28125 324.839844 108.441406 326.679688 106.164062 326.679688 " fill-opacity="1" fill-rule="nonzero"/></g><path fill="#a6a6a6" d="M 122.679688 317.195312 C 121.625 317.195312 120.570312 316.792969 119.765625 315.988281 L 106.164062 302.386719 L 92.566406 315.988281 C 90.957031 317.59375 88.347656 317.59375 86.738281 315.988281 C 85.132812 314.382812 85.132812 311.773438 86.738281 310.160156 L 103.25 293.648438 C 104.859375 292.042969 107.46875 292.042969 109.078125 293.648438 L 125.589844 310.160156 C 127.199219 311.773438 127.199219 314.382812 125.589844 315.988281 C 124.789062 316.792969 123.730469 317.195312 122.679688 317.195312 " fill-opacity="1" fill-rule="nonzero"/><path fill="#a6a6a6" d="M 161.539062 294.710938 C 160.839844 294.710938 160.136719 294.53125 159.484375 294.15625 L 104.105469 262.183594 C 102.136719 261.042969 101.460938 258.523438 102.597656 256.558594 C 103.734375 254.585938 106.253906 253.910156 108.226562 255.046875 L 163.601562 287.023438 C 165.574219 288.160156 166.25 290.679688 165.113281 292.648438 C 164.347656 293.972656 162.964844 294.710938 161.539062 294.710938 " fill-opacity="1" fill-rule="nonzero"/><path fill="#a6a6a6" d="M 145.066406 304.265625 C 143.25 304.265625 141.585938 303.054688 141.09375 301.214844 L 135.046875 278.652344 C 134.765625 277.597656 134.914062 276.476562 135.457031 275.53125 C 136.003906 274.582031 136.90625 273.894531 137.960938 273.609375 L 160.519531 267.566406 C 162.722656 266.976562 164.972656 268.285156 165.5625 270.480469 C 166.152344 272.675781 164.847656 274.933594 162.652344 275.523438 L 144.070312 280.5 L 149.050781 299.082031 C 149.640625 301.277344 148.335938 303.535156 146.136719 304.125 C 145.78125 304.222656 145.421875 304.265625 145.066406 304.265625 " fill-opacity="1" fill-rule="nonzero"/><path fill="#a6a6a6" d="M 106.171875 262.738281 C 104.746094 262.738281 103.363281 261.996094 102.597656 260.675781 C 101.460938 258.707031 102.136719 256.1875 104.105469 255.046875 L 159.484375 223.074219 C 161.457031 221.933594 163.972656 222.613281 165.113281 224.585938 C 166.25 226.550781 165.574219 229.070312 163.601562 230.210938 L 108.226562 262.183594 C 107.578125 262.558594 106.867188 262.738281 106.171875 262.738281 " fill-opacity="1" fill-rule="nonzero"/><path fill="#a6a6a6" d="M 161.589844 249.808594 C 161.234375 249.808594 160.878906 249.761719 160.519531 249.667969 L 137.960938 243.625 C 136.90625 243.339844 136.003906 242.652344 135.457031 241.703125 C 134.914062 240.757812 134.765625 239.632812 135.046875 238.578125 L 141.09375 216.019531 C 141.683594 213.824219 143.945312 212.515625 146.136719 213.105469 C 148.335938 213.695312 149.640625 215.953125 149.050781 218.152344 L 144.070312 236.730469 L 162.652344 241.707031 C 164.847656 242.296875 166.152344 244.554688 165.5625 246.753906 C 165.074219 248.59375 163.40625 249.808594 161.589844 249.808594 " fill-opacity="1" fill-rule="nonzero"/><path fill="#a6a6a6" d="M 274.738281 170.207031 C 272.464844 170.207031 270.621094 168.363281 270.621094 166.089844 L 270.621094 108.929688 C 270.621094 106.65625 272.464844 104.8125 274.738281 104.8125 C 277.015625 104.8125 278.859375 106.65625 278.859375 108.929688 L 278.859375 166.089844 C 278.859375 168.363281 277.015625 170.207031 274.738281 170.207031 " fill-opacity="1" fill-rule="nonzero"/><path fill="#a6a6a6" d="M 274.738281 136.292969 C 273.648438 136.292969 272.601562 135.859375 271.828125 135.085938 L 257.066406 120.324219 C 255.460938 118.71875 255.460938 116.105469 257.070312 114.5 C 258.671875 112.894531 261.285156 112.894531 262.894531 114.5 L 274.738281 126.347656 L 286.585938 114.5 C 288.195312 112.894531 290.804688 112.894531 292.414062 114.5 C 294.019531 116.105469 294.019531 118.71875 292.414062 120.324219 L 277.652344 135.085938 C 276.878906 135.859375 275.832031 136.292969 274.738281 136.292969 " fill-opacity="1" fill-rule="nonzero"/><path fill="#a6a6a6" d="M 274.734375 170.210938 C 274.035156 170.210938 273.328125 170.03125 272.679688 169.65625 L 223.179688 141.078125 C 221.210938 139.9375 220.539062 137.421875 221.671875 135.449219 C 222.8125 133.480469 225.324219 132.804688 227.296875 133.945312 L 276.796875 162.523438 C 278.769531 163.660156 279.441406 166.179688 278.308594 168.148438 C 277.542969 169.472656 276.160156 170.210938 274.734375 170.210938 " fill-opacity="1" fill-rule="nonzero"/><path fill="#a6a6a6" d="M 225.203125 158.65625 C 223.382812 158.65625 221.71875 157.4375 221.226562 155.597656 C 220.636719 153.402344 221.941406 151.144531 224.136719 150.554688 L 240.320312 146.21875 L 235.984375 130.035156 C 235.398438 127.835938 236.703125 125.578125 238.898438 124.988281 C 241.089844 124.394531 243.355469 125.707031 243.945312 127.902344 L 249.347656 148.066406 C 249.933594 150.265625 248.632812 152.519531 246.433594 153.109375 L 226.269531 158.515625 C 225.914062 158.609375 225.554688 158.65625 225.203125 158.65625 " fill-opacity="1" fill-rule="nonzero"/><path fill="#a6a6a6" d="M 225.246094 198.789062 C 223.820312 198.789062 222.4375 198.046875 221.671875 196.726562 C 220.539062 194.757812 221.210938 192.238281 223.179688 191.097656 L 272.679688 162.523438 C 274.652344 161.382812 277.167969 162.0625 278.308594 164.03125 C 279.441406 166 278.769531 168.519531 276.796875 169.65625 L 227.296875 198.234375 C 226.652344 198.609375 225.941406 198.789062 225.246094 198.789062 " fill-opacity="1" fill-rule="nonzero"/><path fill="#a6a6a6" d="M 239.96875 207.328125 C 239.617188 207.328125 239.257812 207.285156 238.898438 207.1875 C 236.703125 206.597656 235.398438 204.339844 235.984375 202.144531 L 240.320312 185.960938 L 224.136719 181.625 C 221.941406 181.035156 220.636719 178.777344 221.226562 176.578125 C 221.820312 174.382812 224.074219 173.082031 226.269531 173.667969 L 246.433594 179.070312 C 247.488281 179.355469 248.390625 180.042969 248.9375 180.988281 C 249.480469 181.933594 249.628906 183.058594 249.347656 184.113281 L 243.945312 204.277344 C 243.449219 206.117188 241.785156 207.328125 239.96875 207.328125 " fill-opacity="1" fill-rule="nonzero"/><path fill="#a6a6a6" d="M 274.738281 227.363281 C 272.464844 227.363281 270.621094 225.523438 270.621094 223.246094 L 270.621094 166.089844 C 270.621094 163.816406 272.464844 161.972656 274.738281 161.972656 C 277.015625 161.972656 278.859375 163.816406 278.859375 166.089844 L 278.859375 223.246094 C 278.859375 225.523438 277.015625 227.363281 274.738281 227.363281 " fill-opacity="1" fill-rule="nonzero"/><path fill="#a6a6a6" d="M 289.5 218.882812 C 288.449219 218.882812 287.394531 218.484375 286.589844 217.679688 L 274.738281 205.832031 L 262.894531 217.679688 C 261.285156 219.28125 258.675781 219.28125 257.066406 217.679688 C 255.460938 216.070312 255.460938 213.460938 257.066406 211.851562 L 271.828125 197.09375 C 273.433594 195.488281 276.042969 195.488281 277.648438 197.09375 L 292.414062 211.851562 C 294.019531 213.460938 294.019531 216.070312 292.414062 217.675781 C 291.609375 218.480469 290.554688 218.882812 289.5 218.882812 " fill-opacity="1" fill-rule="nonzero"/><path fill="#a6a6a6" d="M 324.234375 198.789062 C 323.539062 198.789062 322.832031 198.609375 322.183594 198.234375 L 272.679688 169.65625 C 270.710938 168.519531 270.035156 166.003906 271.171875 164.03125 C 272.308594 162.0625 274.824219 161.386719 276.796875 162.523438 L 326.300781 191.097656 C 328.269531 192.238281 328.945312 194.757812 327.808594 196.726562 C 327.046875 198.046875 325.660156 198.789062 324.234375 198.789062 " fill-opacity="1" fill-rule="nonzero"/><path fill="#a6a6a6" d="M 309.511719 207.328125 C 307.695312 207.328125 306.03125 206.117188 305.535156 204.277344 L 300.136719 184.113281 C 299.546875 181.917969 300.851562 179.660156 303.046875 179.070312 L 323.210938 173.667969 C 325.402344 173.074219 327.660156 174.382812 328.253906 176.578125 C 328.84375 178.777344 327.539062 181.035156 325.339844 181.625 L 309.160156 185.960938 L 313.496094 202.144531 C 314.085938 204.339844 312.777344 206.597656 310.582031 207.1875 C 310.222656 207.285156 309.867188 207.328125 309.511719 207.328125 " fill-opacity="1" fill-rule="nonzero"/><path fill="#a6a6a6" d="M 274.746094 170.210938 C 273.320312 170.210938 271.9375 169.472656 271.171875 168.148438 C 270.035156 166.179688 270.710938 163.660156 272.679688 162.523438 L 322.183594 133.945312 C 324.160156 132.800781 326.667969 133.480469 327.808594 135.449219 C 328.945312 137.421875 328.269531 139.9375 326.300781 141.078125 L 276.796875 169.65625 C 276.148438 170.03125 275.441406 170.210938 274.746094 170.210938 " fill-opacity="1" fill-rule="nonzero"/><path fill="#a6a6a6" d="M 324.277344 158.65625 C 323.925781 158.65625 323.566406 158.609375 323.210938 158.515625 L 303.046875 153.109375 C 300.851562 152.519531 299.546875 150.265625 300.136719 148.066406 L 305.535156 127.902344 C 306.128906 125.707031 308.386719 124.40625 310.582031 124.988281 C 312.777344 125.578125 314.085938 127.835938 313.496094 130.035156 L 309.160156 146.21875 L 325.339844 150.554688 C 327.539062 151.144531 328.84375 153.402344 328.253906 155.597656 C 327.757812 157.4375 326.09375 158.65625 324.277344 158.65625 " fill-opacity="1" fill-rule="nonzero"/><g clip-path="url(#7faf4f82ea)"><path fill="#a6a6a6" d="M 124.351562 98.5625 C 122.078125 98.5625 120.234375 96.71875 120.234375 94.445312 L 120.234375 52.441406 C 120.234375 50.164062 122.078125 48.324219 124.351562 48.324219 C 126.628906 48.324219 128.46875 50.164062 128.46875 52.441406 L 128.46875 94.445312 C 128.46875 96.71875 126.628906 98.5625 124.351562 98.5625 " fill-opacity="1" fill-rule="nonzero"/></g><path fill="#a6a6a6" d="M 124.351562 73.636719 C 123.300781 73.636719 122.242188 73.234375 121.4375 72.433594 L 110.59375 61.585938 C 108.984375 59.976562 108.984375 57.367188 110.59375 55.757812 C 112.199219 54.15625 114.8125 54.15625 116.417969 55.757812 L 124.351562 63.695312 L 132.285156 55.757812 C 133.894531 54.15625 136.503906 54.15625 138.113281 55.757812 C 139.71875 57.367188 139.71875 59.976562 138.113281 61.585938 L 127.265625 72.433594 C 126.460938 73.234375 125.40625 73.636719 124.351562 73.636719 " fill-opacity="1" fill-rule="nonzero"/><path fill="#a6a6a6" d="M 124.347656 98.5625 C 123.648438 98.5625 122.941406 98.386719 122.292969 98.011719 L 85.914062 77.007812 C 83.945312 75.875 83.273438 73.355469 84.410156 71.382812 C 85.546875 69.414062 88.0625 68.738281 90.035156 69.875 L 126.410156 90.878906 C 128.382812 92.011719 129.054688 94.53125 127.917969 96.503906 C 127.15625 97.824219 125.773438 98.5625 124.347656 98.5625 " fill-opacity="1" fill-rule="nonzero"/><path fill="#a6a6a6" d="M 87.945312 90.074219 C 86.128906 90.074219 84.464844 88.859375 83.972656 87.015625 C 83.382812 84.820312 84.6875 82.5625 86.882812 81.972656 L 97.722656 79.070312 L 94.816406 68.230469 C 94.230469 66.03125 95.535156 63.773438 97.730469 63.183594 C 99.9375 62.589844 102.1875 63.902344 102.777344 66.097656 L 106.746094 80.917969 C 107.332031 83.113281 106.03125 85.371094 103.832031 85.960938 L 89.015625 89.933594 C 88.660156 90.027344 88.300781 90.074219 87.945312 90.074219 " fill-opacity="1" fill-rule="nonzero"/><path fill="#a6a6a6" d="M 87.980469 119.566406 C 86.554688 119.566406 85.171875 118.828125 84.410156 117.507812 C 83.273438 115.535156 83.945312 113.015625 85.914062 111.878906 L 122.292969 90.878906 C 124.265625 89.734375 126.78125 90.417969 127.917969 92.382812 C 129.054688 94.351562 128.382812 96.871094 126.410156 98.011719 L 90.035156 119.011719 C 89.386719 119.386719 88.675781 119.566406 87.980469 119.566406 " fill-opacity="1" fill-rule="nonzero"/><path fill="#a6a6a6" d="M 98.800781 125.84375 C 98.449219 125.84375 98.085938 125.796875 97.730469 125.703125 C 95.535156 125.113281 94.230469 122.855469 94.816406 120.65625 L 97.722656 109.820312 L 86.882812 106.917969 C 84.6875 106.328125 83.382812 104.070312 83.972656 101.871094 C 84.5625 99.675781 86.828125 98.375 89.015625 98.957031 L 103.832031 102.925781 C 106.03125 103.519531 107.332031 105.777344 106.746094 107.972656 L 102.777344 122.789062 C 102.28125 124.628906 100.617188 125.84375 98.800781 125.84375 " fill-opacity="1" fill-rule="nonzero"/><path fill="#a6a6a6" d="M 124.351562 140.566406 C 122.078125 140.566406 120.234375 138.722656 120.234375 136.449219 L 120.234375 94.445312 C 120.234375 92.167969 122.078125 90.328125 124.351562 90.328125 C 126.628906 90.328125 128.46875 92.167969 128.46875 94.445312 L 128.46875 136.449219 C 128.46875 138.722656 126.628906 140.566406 124.351562 140.566406 " fill-opacity="1" fill-rule="nonzero"/><path fill="#a6a6a6" d="M 135.199219 134.335938 C 134.144531 134.335938 133.089844 133.933594 132.285156 133.132812 L 124.351562 125.195312 L 116.417969 133.132812 C 114.8125 134.734375 112.199219 134.734375 110.59375 133.132812 C 108.984375 131.523438 108.984375 128.914062 110.59375 127.304688 L 121.4375 116.457031 C 123.046875 114.855469 125.65625 114.855469 127.265625 116.457031 L 138.113281 127.304688 C 139.71875 128.914062 139.71875 131.523438 138.113281 133.132812 C 137.308594 133.933594 136.253906 134.335938 135.199219 134.335938 " fill-opacity="1" fill-rule="nonzero"/><path fill="#a6a6a6" d="M 160.726562 119.566406 C 160.027344 119.566406 159.320312 119.386719 158.671875 119.011719 L 122.292969 98.011719 C 120.324219 96.871094 119.648438 94.351562 120.785156 92.382812 C 121.925781 90.414062 124.4375 89.738281 126.410156 90.878906 L 162.789062 111.878906 C 164.757812 113.015625 165.433594 115.535156 164.296875 117.507812 C 163.53125 118.828125 162.148438 119.566406 160.726562 119.566406 " fill-opacity="1" fill-rule="nonzero"/><path fill="#a6a6a6" d="M 149.90625 125.84375 C 148.089844 125.84375 146.425781 124.628906 145.929688 122.789062 L 141.960938 107.972656 C 141.371094 105.777344 142.675781 103.519531 144.875 102.925781 L 159.6875 98.957031 C 161.882812 98.367188 164.140625 99.675781 164.734375 101.871094 C 165.324219 104.070312 164.019531 106.328125 161.820312 106.917969 L 150.984375 109.820312 L 153.886719 120.65625 C 154.476562 122.855469 153.171875 125.113281 150.972656 125.703125 C 150.617188 125.796875 150.257812 125.84375 149.90625 125.84375 " fill-opacity="1" fill-rule="nonzero"/><path fill="#a6a6a6" d="M 124.359375 98.5625 C 122.933594 98.5625 121.550781 97.824219 120.785156 96.503906 C 119.648438 94.53125 120.324219 92.011719 122.292969 90.878906 L 158.671875 69.875 C 160.644531 68.730469 163.160156 69.417969 164.296875 71.382812 C 165.433594 73.355469 164.757812 75.875 162.789062 77.007812 L 126.410156 98.011719 C 125.765625 98.386719 125.054688 98.5625 124.359375 98.5625 " fill-opacity="1" fill-rule="nonzero"/><path fill="#a6a6a6" d="M 160.757812 90.074219 C 160.40625 90.074219 160.046875 90.027344 159.6875 89.933594 L 144.875 85.960938 C 142.675781 85.371094 141.371094 83.113281 141.960938 80.917969 L 145.929688 66.101562 C 146.519531 63.90625 148.78125 62.601562 150.972656 63.1875 C 153.171875 63.777344 154.476562 66.035156 153.886719 68.230469 L 150.984375 79.070312 L 161.820312 81.972656 C 164.019531 82.5625 165.324219 84.820312 164.734375 87.015625 C 164.242188 88.859375 162.574219 90.074219 160.757812 90.074219 " fill-opacity="1" fill-rule="nonzero"/></svg>