<svg xmlns="http://www.w3.org/2000/svg" xmlns:xlink="http://www.w3.org/1999/xlink" width="500" zoomAndPan="magnify" viewBox="0 0 375 374.999991" height="500" preserveAspectRatio="xMidYMid meet" version="1.0"><path fill="#f0ece2" d="M 181.742188 4.605469 L 181.742188 28.101562 C 181.742188 30.867188 183.585938 32.707031 186.347656 32.707031 C 188.652344 32.707031 190.957031 30.867188 190.957031 28.101562 L 191.414062 4.605469 C 191.414062 1.84375 189.574219 0 186.808594 0 C 184.042969 0 182.203125 2.304688 181.742188 4.605469 Z M 181.742188 4.605469 " fill-opacity="1" fill-rule="nonzero"/><path fill="#f0ece2" d="M 215.371094 20.730469 L 198.324219 36.855469 C 196.484375 38.699219 196.484375 41.460938 198.324219 43.304688 C 199.246094 44.226562 200.628906 44.6875 201.550781 44.6875 C 202.472656 44.6875 203.855469 44.226562 204.777344 43.304688 L 221.820312 27.179688 C 223.664062 25.335938 223.664062 22.574219 221.820312 20.730469 C 220.4375 19.347656 217.214844 19.347656 215.371094 20.730469 Z M 215.371094 20.730469 " fill-opacity="1" fill-rule="nonzero"/><path fill="#f0ece2" d="M 150.875 21.191406 C 149.03125 23.035156 149.03125 25.796875 150.875 27.640625 L 167.921875 43.765625 C 168.84375 44.6875 169.761719 45.148438 171.144531 45.148438 C 172.527344 45.148438 173.449219 44.6875 174.371094 43.765625 C 176.214844 41.921875 176.214844 39.160156 174.371094 37.316406 L 157.324219 21.191406 C 155.480469 19.347656 152.257812 19.347656 150.875 21.191406 Z M 150.875 21.191406 " fill-opacity="1" fill-rule="nonzero"/><path fill="#f0ece2" d="M 345.746094 349.664062 L 316.722656 356.574219 L 291.386719 252.917969 C 317.183594 241.402344 325.9375 189.34375 311.195312 130.375 C 306.585938 112.40625 293.6875 68.640625 285.855469 52.058594 C 284.933594 50.214844 282.632812 49.292969 280.789062 49.753906 L 197.867188 70.023438 C 195.5625 70.484375 194.179688 72.328125 194.179688 74.632812 C 194.640625 93.058594 203.394531 137.746094 208 155.710938 C 222.28125 213.757812 253.148438 255.222656 280.789062 255.222656 C 281.25 255.222656 281.710938 255.222656 282.632812 255.222656 L 307.96875 358.875 L 278.945312 365.785156 C 276.644531 366.246094 274.800781 369.011719 275.722656 371.316406 C 276.183594 373.617188 278.023438 375 280.328125 375 C 280.789062 375 281.25 375 281.25 375 L 348.050781 358.875 C 350.351562 358.414062 352.195312 355.652344 351.273438 353.347656 C 350.8125 350.582031 348.050781 349.203125 345.746094 349.664062 Z M 278.945312 58.96875 C 282.171875 66.339844 285.855469 76.933594 289.542969 87.992188 L 207.539062 107.339844 C 205.695312 95.824219 203.855469 85.226562 203.394531 77.394531 Z M 216.753906 152.949219 C 214.910156 144.65625 211.6875 130.835938 208.921875 116.554688 L 291.847656 96.746094 C 295.992188 110.566406 299.675781 123.925781 301.519531 131.757812 C 315.339844 187.5 307.046875 239.097656 284.015625 244.625 C 261.441406 251.074219 230.574219 208.691406 216.753906 152.949219 Z M 216.753906 152.949219 " fill-opacity="1" fill-rule="nonzero"/><path fill="#f0ece2" d="M 290.003906 216.0625 C 295.070312 204.085938 296.914062 168.152344 286.316406 124.847656 C 285.855469 122.542969 283.09375 120.699219 280.789062 121.621094 C 278.484375 122.082031 276.644531 124.847656 277.566406 127.148438 C 287.699219 167.691406 285.855469 202.242188 281.710938 212.378906 C 280.789062 214.679688 281.710938 217.445312 284.015625 218.367188 C 284.476562 218.828125 285.394531 218.828125 285.855469 218.828125 C 287.699219 219.289062 289.082031 217.90625 290.003906 216.0625 Z M 290.003906 216.0625 " fill-opacity="1" fill-rule="nonzero"/><path fill="#f0ece2" d="M 180.359375 74.171875 C 180.359375 71.867188 178.976562 70.023438 176.675781 69.5625 L 93.75 49.292969 C 91.445312 48.832031 89.605469 49.753906 88.683594 51.597656 C 80.851562 68.183594 67.953125 111.945312 63.34375 129.914062 C 55.972656 158.9375 54.589844 187.960938 58.738281 210.996094 C 62.421875 232.648438 71.175781 247.390625 83.613281 252.917969 L 58.277344 357.03125 L 28.792969 349.664062 C 26.488281 349.203125 23.726562 350.582031 23.265625 352.886719 C 22.804688 355.191406 24.1875 357.953125 26.488281 358.414062 L 93.289062 374.539062 C 93.75 374.539062 94.210938 374.539062 94.210938 374.539062 C 96.515625 374.539062 98.355469 373.15625 98.816406 370.855469 C 99.277344 368.550781 97.894531 365.785156 95.59375 365.324219 L 67.03125 358.875 L 92.367188 254.761719 C 92.828125 254.761719 93.75 254.761719 94.210938 254.761719 C 107.109375 254.761719 120.929688 246.007812 133.371094 228.960938 C 147.652344 210.535156 159.167969 184.273438 166.539062 154.792969 C 171.144531 137.285156 179.898438 92.597656 180.359375 74.171875 Z M 95.59375 58.96875 L 171.144531 77.394531 C 170.683594 85.226562 168.84375 96.285156 167 107.339844 L 84.996094 87.992188 C 88.683594 76.933594 92.367188 66.339844 95.59375 58.96875 Z M 126 223.894531 C 113.558594 240.019531 100.199219 247.851562 89.605469 245.546875 C 79.007812 242.78125 71.175781 229.882812 67.492188 209.613281 C 63.804688 187.960938 65.1875 160.320312 72.097656 132.21875 C 73.941406 123.925781 77.625 110.566406 81.773438 97.207031 L 164.695312 117.015625 C 161.933594 131.296875 159.167969 145.117188 156.863281 153.410156 C 150.875 181.050781 139.820312 206.386719 126 223.894531 Z M 126 223.894531 " fill-opacity="1" fill-rule="nonzero"/><path fill="#f0ece2" d="M 93.75 121.621094 C 91.445312 121.160156 88.683594 122.542969 88.222656 124.847656 C 77.625 168.152344 79.929688 204.085938 84.535156 216.0625 C 85.457031 217.90625 86.839844 218.828125 88.683594 218.828125 C 89.144531 218.828125 90.066406 218.828125 90.523438 218.367188 C 92.828125 217.445312 94.210938 214.679688 92.828125 212.378906 C 88.683594 201.78125 86.839844 167.691406 96.976562 127.148438 C 97.894531 124.847656 96.515625 122.542969 93.75 121.621094 Z M 93.75 121.621094 " fill-opacity="1" fill-rule="nonzero"/><path fill="#f0ece2" d="M 210.765625 246.007812 C 201.550781 242.320312 191.875 245.085938 184.503906 252.917969 C 177.59375 245.085938 167.921875 242.320312 158.246094 246.007812 C 147.191406 250.152344 137.976562 263.511719 141.660156 281.019531 C 147.652344 309.582031 180.820312 324.324219 182.203125 324.785156 C 182.664062 325.246094 183.585938 325.246094 184.042969 325.246094 C 184.503906 325.246094 185.425781 325.246094 185.886719 324.785156 C 187.269531 324.324219 220.4375 309.582031 226.429688 281.019531 C 231.035156 263.511719 221.820312 250.152344 210.765625 246.007812 Z M 218.136719 278.714844 C 213.527344 298.988281 191.414062 311.886719 184.503906 315.109375 C 178.054688 311.886719 155.480469 298.988281 150.875 278.714844 C 148.109375 265.816406 154.5625 257.0625 161.933594 254.300781 C 163.773438 253.839844 165.15625 253.378906 167 253.378906 C 172.066406 253.378906 177.132812 256.601562 180.820312 262.59375 C 182.664062 265.355469 187.269531 265.355469 188.652344 262.59375 C 193.257812 254.761719 200.167969 251.535156 207.539062 254.300781 C 214.449219 257.0625 220.898438 265.816406 218.136719 278.714844 Z M 218.136719 278.714844 " fill-opacity="1" fill-rule="nonzero"/></svg>