<svg xmlns="http://www.w3.org/2000/svg" xmlns:xlink="http://www.w3.org/1999/xlink" width="500" zoomAndPan="magnify" viewBox="0 0 375 374.999991" height="500" preserveAspectRatio="xMidYMid meet" version="1.0"><defs><clipPath id="648902615f"><path d="M 151 125 L 375 125 L 375 349.03125 L 151 349.03125 Z M 151 125 " clip-rule="nonzero"/></clipPath></defs><path fill="#f0ece2" d="M 94.753906 82.300781 L 85.132812 64.984375 C 79.214844 70.898438 49.917969 100.199219 37.941406 112.171875 L 55.261719 121.796875 C 65.640625 105.390625 79.234375 92.109375 94.753906 82.300781 Z M 94.753906 82.300781 " fill-opacity="1" fill-rule="nonzero"/><path fill="#f0ece2" d="M 97.070312 256.53125 C 60.46875 219.941406 60.464844 160.707031 97.070312 124.109375 C 130.28125 90.886719 182.480469 87.722656 219.28125 115.273438 L 211.921875 89.507812 C 159.425781 64.144531 94.25 83.460938 65.179688 136.40625 C 41.335938 179.734375 49.136719 234.4375 84.144531 269.449219 C 102.546875 287.851562 126.882812 299.207031 152.566406 301.699219 C 148.867188 295.375 145.691406 288.707031 143.109375 281.753906 C 125.660156 277.933594 109.820312 269.285156 97.070312 256.53125 Z M 97.070312 256.53125 " fill-opacity="1" fill-rule="nonzero"/><path fill="#f0ece2" d="M 263.039062 74.367188 L 287.546875 49.859375 C 292.6875 44.71875 292.8125 36.277344 287.539062 30.988281 C 282.347656 25.804688 273.886719 25.804688 268.6875 31 C 265.566406 34.117188 260.511719 34.117188 257.390625 31 C 252.15625 25.777344 243.738281 25.800781 238.523438 31.003906 C 233.335938 36.199219 233.332031 44.660156 238.53125 49.859375 Z M 263.039062 74.367188 " fill-opacity="1" fill-rule="nonzero"/><path fill="#f0ece2" d="M 290.960938 112.503906 L 296.40625 93.441406 C 288.019531 93.441406 246.496094 93.441406 229.671875 93.441406 L 235.117188 112.503906 C 253.472656 108.402344 272.585938 108.398438 290.960938 112.503906 Z M 290.960938 112.503906 " fill-opacity="1" fill-rule="nonzero"/><path fill="#f0ece2" d="M 48.050781 40.433594 C 48.050781 33.160156 42.167969 27.101562 34.703125 27.09375 C 27.367188 27.097656 21.382812 33.082031 21.378906 40.429688 C 21.375 44.839844 17.804688 48.414062 13.394531 48.421875 C 5.996094 48.429688 0.0585938 54.394531 0.0546875 61.761719 C 0.0546875 69.105469 6.039062 75.089844 13.390625 75.089844 L 48.050781 75.089844 Z M 48.050781 40.433594 " fill-opacity="1" fill-rule="nonzero"/><path fill="#f0ece2" d="M 252.039062 160.453125 C 267.917969 207.554688 243.675781 259.929688 196.785156 277.777344 C 200.117188 283.214844 204.097656 288.207031 208.621094 292.65625 C 258.160156 270.742188 286.496094 215.011719 271.042969 160.082031 C 264.707031 159.429688 258.351562 159.554688 252.039062 160.453125 Z M 252.039062 160.453125 " fill-opacity="1" fill-rule="nonzero"/><g clip-path="url(#648902615f)"><path fill="#f0ece2" d="M 263.039062 125.414062 C 201.332031 125.414062 151.128906 175.617188 151.128906 237.324219 C 151.128906 299.027344 201.332031 349.230469 263.039062 349.230469 C 324.746094 349.230469 374.945312 299.03125 374.945312 237.324219 C 374.945312 175.617188 324.746094 125.414062 263.039062 125.414062 Z M 263.039062 330.960938 C 211.089844 330.960938 169.402344 288.613281 169.402344 237.324219 C 169.402344 185.441406 211.664062 143.683594 263.039062 143.683594 C 314.441406 143.683594 356.675781 185.488281 356.675781 237.324219 C 356.675781 288.953125 314.671875 330.960938 263.039062 330.960938 Z M 263.039062 330.960938 " fill-opacity="1" fill-rule="nonzero"/></g></svg>