<svg xmlns="http://www.w3.org/2000/svg" xmlns:xlink="http://www.w3.org/1999/xlink" width="500" zoomAndPan="magnify" viewBox="0 0 375 374.999991" height="500" preserveAspectRatio="xMidYMid meet" version="1.0"><path fill="#f0ece2" d="M 73.292969 186.050781 C 65.058594 186.050781 60.910156 196.070312 66.734375 201.898438 C 72.582031 207.722656 82.582031 203.574219 82.582031 195.339844 C 82.574219 190.207031 78.425781 186.050781 73.292969 186.050781 Z M 64.167969 178.984375 C 69.835938 175.8125 76.777344 175.8125 82.445312 178.984375 C 84.925781 172.78125 80.367188 165.59375 73.300781 165.59375 C 66.238281 165.59375 61.6875 172.78125 64.167969 178.984375 Z M 89.648438 186.191406 C 92.8125 191.859375 92.8125 198.820312 89.648438 204.472656 C 95.851562 206.949219 103.039062 202.417969 103.039062 195.347656 C 103.03125 188.261719 95.828125 183.738281 89.648438 186.191406 Z M 82.4375 211.671875 C 76.769531 214.863281 69.828125 214.863281 64.160156 211.671875 C 61.679688 217.898438 66.238281 225.085938 73.285156 225.085938 C 80.359375 225.078125 84.917969 217.898438 82.4375 211.671875 Z M 56.957031 204.464844 C 53.792969 198.820312 53.792969 191.851562 56.957031 186.183594 C 50.753906 183.730469 43.570312 188.261719 43.570312 195.332031 C 43.570312 202.410156 50.753906 206.941406 56.957031 204.464844 Z M 63.113281 159.074219 C 71.324219 153.921875 82.078125 155.730469 88.191406 163.199219 C 89.421875 151.660156 86.832031 142.183594 81.25 137.671875 C 76.117188 133.523438 69.488281 133.101562 64.292969 136.933594 C 60.035156 140.082031 57.242188 146.078125 58.289062 154.628906 C 59.902344 155.957031 61.507812 157.429688 63.113281 159.074219 Z M 95.332031 176.195312 C 101.378906 176.867188 106.667969 180.34375 109.722656 185.390625 C 134.445312 175.574219 157.558594 156.675781 171.441406 134.226562 C 158.078125 120.679688 141.476562 104.574219 133.398438 86.988281 C 114.8125 97.765625 99.597656 113.765625 89.796875 132.910156 C 95.535156 139.316406 98.90625 149.488281 97.582031 163.5 C 116.347656 153.953125 129.226562 135.453125 131.320312 114.144531 C 131.566406 111.578125 133.886719 109.683594 136.476562 109.925781 C 139.066406 110.195312 140.941406 112.492188 140.695312 115.082031 C 138.042969 141.921875 120.503906 164.886719 95.710938 174.675781 C 95.609375 175.1875 95.472656 175.699219 95.332031 176.195312 Z M 112.46875 194.441406 C 112.917969 204.621094 105.414062 213.320312 95.441406 214.460938 C 133.570312 245.542969 138.75 300.210938 133.265625 346.597656 C 132.972656 349.007812 130.941406 350.769531 128.582031 350.769531 L 72.929688 350.769531 C 72.882812 350.769531 72.84375 350.769531 72.820312 350.769531 C 70.277344 350.707031 68.199219 348.652344 68.199219 346.0625 L 68.199219 233.824219 C 63.515625 232.546875 59.492188 229.519531 56.949219 225.433594 C 40.238281 234.714844 26.898438 234.691406 17.996094 230.226562 C 0.164062 221.347656 0.03125 195.550781 21.316406 186.832031 C 3.21875 166.121094 23.347656 138.183594 48.691406 148.789062 C 49.96875 129.800781 67.523438 120.113281 82.164062 127.125 C 93.097656 106.535156 109.785156 89.4375 130.117188 78.015625 C 127.125 66.882812 128.304688 55.390625 136.609375 44.007812 C 136.679688 43.898438 136.746094 43.804688 136.816406 43.742188 L 136.816406 43.71875 C 150.9375 27.054688 171.222656 24.332031 188.066406 40.59375 C 205.140625 24.238281 228.480469 24.84375 241.285156 44.632812 C 249.070312 56.683594 250.589844 67.859375 248.230469 78.296875 C 268.175781 89.632812 284.667969 106.550781 295.464844 126.808594 C 311.191406 116.277344 332.792969 127.394531 331.769531 149.347656 C 358.164062 141.648438 375.03125 171.679688 354.730469 190.199219 C 374.253906 200.890625 372.183594 225.363281 354.730469 233.085938 C 346.007812 236.964844 333.53125 236.429688 318.742188 227.125 C 316.421875 230.09375 313.253906 232.34375 309.644531 233.53125 L 309.644531 346.054688 C 309.644531 348.171875 308.257812 349.363281 308.257812 349.378906 C 307.34375 350.292969 306.203125 350.761719 304.910156 350.761719 L 249.261719 350.761719 C 246.914062 350.761719 244.867188 349 244.578125 346.589844 C 239.089844 300.292969 244.261719 245.625 282.289062 214.523438 C 271.78125 213.808594 263.765625 204.707031 264.4375 194.066406 C 238.445312 183.667969 214.277344 164.074219 199.308594 140.625 C 196.023438 144.066406 193.820312 147.789062 188.460938 147.789062 L 188.460938 147.765625 C 183.28125 147.765625 181.296875 144.554688 178.195312 141.207031 C 163.035156 164.609375 138.601562 184.226562 112.46875 194.441406 Z M 90.941406 222.960938 C 88.53125 228.496094 83.597656 232.644531 77.660156 234.027344 L 77.660156 341.332031 L 124.339844 341.332031 C 128.628906 299.945312 123.875 251.117188 90.941406 222.960938 Z M 54.078125 216.269531 L 54.054688 214.578125 C 43.609375 214.980469 34.753906 206.878906 34.15625 196.480469 C 32.636719 195.726562 31.234375 194.921875 29.910156 194.074219 C 21.480469 195.789062 16.65625 200.324219 15.027344 205.382812 C 11.011719 217.804688 25.363281 233.179688 54.078125 216.269531 Z M 36.097656 186.816406 C 39.40625 180.140625 46.363281 175.820312 54.0625 176.101562 C 53.929688 172.417969 54.863281 168.875 56.582031 165.859375 C 39.261719 147.605469 22.953125 157.761719 23.867188 170.480469 C 24.339844 177.0625 29.21875 182.753906 36.097656 186.816406 Z M 303.582031 176.613281 C 306.886719 176.613281 310.003906 177.488281 312.703125 178.976562 C 315.183594 172.773438 310.625 165.585938 303.582031 165.585938 C 296.503906 165.585938 291.957031 172.773438 294.433594 178.976562 C 297.136719 177.488281 300.261719 176.613281 303.582031 176.613281 Z M 319.914062 186.191406 C 323.085938 191.859375 323.085938 198.820312 319.914062 204.472656 C 326.117188 206.949219 333.304688 202.417969 333.304688 195.347656 C 333.304688 188.261719 326.117188 183.738281 319.914062 186.191406 Z M 312.710938 211.671875 C 307.046875 214.863281 300.101562 214.863281 294.433594 211.671875 C 291.957031 217.898438 296.511719 225.085938 303.582031 225.085938 C 310.648438 225.085938 315.183594 217.875 312.710938 211.671875 Z M 287.222656 204.464844 C 284.050781 198.820312 284.050781 191.851562 287.222656 186.183594 C 281.023438 183.730469 273.835938 188.261719 273.835938 195.332031 C 273.84375 202.410156 281.046875 206.941406 287.222656 204.464844 Z M 310.144531 188.773438 C 304.296875 182.949219 294.300781 187.097656 294.300781 195.332031 C 294.300781 203.566406 304.296875 207.714844 310.144531 201.890625 C 313.757812 198.285156 313.757812 192.394531 310.144531 188.773438 Z M 303.582031 156.15625 C 307.621094 156.15625 311.367188 157.40625 314.46875 159.546875 C 316.851562 157.382812 319.246094 155.574219 321.582031 154.078125 C 323.566406 145.710938 321.472656 139.421875 317.570312 135.800781 C 308.3125 127.226562 290.375 133.210938 290.910156 160.902344 C 294.300781 157.941406 298.71875 156.15625 303.582031 156.15625 Z M 320.695312 166.601562 C 322.144531 169.433594 322.921875 172.71875 322.8125 176.109375 C 330.957031 175.796875 338.253906 180.660156 341.285156 187.957031 C 360.097656 178.714844 356.101562 161.359375 344.191406 158.101562 C 335.980469 155.863281 327.1875 160.730469 320.695312 166.601562 Z M 342.609375 197.679688 C 341.402344 207.515625 332.832031 214.949219 322.820312 214.570312 L 322.574219 218.363281 C 346.984375 234.492188 361.398438 221.550781 358.925781 209.351562 C 357.855469 204.15625 353.597656 199.085938 345.402344 196.433594 C 344.503906 196.875 343.570312 197.277344 342.609375 197.679688 Z M 300.171875 234.226562 C 294.035156 233.132812 288.863281 229.09375 286.203125 223.558594 C 253.871094 251.808594 249.230469 300.226562 253.488281 341.324219 L 300.164062 341.324219 L 300.164062 234.226562 Z M 267.347656 185.097656 C 270.71875 179.746094 276.566406 176.257812 283.125 176.109375 C 283.058594 175.707031 282.988281 175.308594 282.917969 174.929688 C 257.792969 165.246094 240.011719 142.175781 237.335938 115.082031 C 237.066406 112.492188 238.964844 110.195312 241.554688 109.925781 C 244.144531 109.683594 246.441406 111.578125 246.710938 114.144531 C 248.851562 135.925781 262.265625 154.753906 281.652344 164.105469 C 280.894531 150.410156 283.792969 140.429688 288.476562 133.761719 C 278.792969 114.484375 263.726562 98.394531 245.167969 87.4375 C 237.421875 104.886719 220.308594 119.921875 206.101562 133.785156 C 219.75 156.132812 242.828125 175.125 267.347656 185.097656 Z M 148.125 45.640625 C 146.71875 46.84375 145.355469 48.230469 144.066406 49.75 C 125.96875 74.960938 154.792969 104.0625 175.503906 124.921875 C 179.628906 129.117188 184.359375 133.824219 188.042969 138.082031 L 188.445312 138.351562 L 188.871094 138.082031 C 193.332031 132.925781 198.890625 127.597656 204.730469 121.992188 C 225.90625 101.683594 251.25 77.371094 233.382812 49.722656 C 225.707031 37.855469 212.476562 34.949219 200.269531 42.828125 C 197.347656 44.726562 194.441406 47.269531 191.65625 50.480469 C 189.78125 52.667969 186.414062 52.730469 184.492188 50.527344 C 173.898438 38.277344 160.664062 34.777344 148.125 45.640625 Z M 164.105469 324.773438 L 175.796875 324.773438 L 175.796875 275.125 L 144.199219 275.125 C 134.019531 275.125 128.753906 262.71875 136.050781 255.421875 C 136.234375 255.242188 136.429688 255.070312 136.609375 254.886719 C 137.792969 243.507812 143.75 233.335938 152.761719 225.90625 C 159.792969 220.105469 168.71875 215.980469 178.621094 214.253906 C 176.257812 203.613281 189.335938 196.425781 197.046875 204.148438 C 199.683594 206.777344 200.84375 210.640625 199.953125 214.390625 C 209.570312 216.175781 218.207031 220.261719 225.054688 225.90625 C 234.066406 233.335938 240.027344 243.515625 241.207031 254.886719 C 241.230469 254.960938 245.160156 257.941406 245.160156 263.59375 C 245.160156 269.929688 239.980469 275.132812 233.621094 275.132812 L 202.023438 275.132812 L 202.023438 324.78125 L 213.710938 324.78125 C 219.355469 324.78125 223.953125 329.398438 223.953125 335.042969 C 223.953125 339.820312 224.597656 344.417969 220.609375 347.875 C 218.78125 349.550781 216.347656 350.574219 213.710938 350.574219 L 164.089844 350.574219 C 158.46875 350.574219 153.847656 345.929688 153.847656 340.308594 C 153.847656 335.382812 153.226562 331.453125 156.863281 327.816406 L 156.863281 327.792969 C 158.730469 325.9375 161.296875 324.773438 164.105469 324.773438 Z M 185.257812 324.773438 L 192.578125 324.773438 L 192.578125 275.125 L 185.257812 275.125 Z M 213.726562 334.234375 L 164.105469 334.234375 C 163.910156 334.234375 163.703125 334.320312 163.546875 334.453125 C 163.390625 334.609375 163.328125 334.808594 163.328125 335.035156 L 163.328125 340.300781 C 163.328125 340.773438 163.664062 341.105469 164.105469 341.105469 L 213.726562 341.105469 C 214.175781 341.105469 214.53125 340.726562 214.53125 340.300781 L 214.53125 335.035156 C 214.53125 334.59375 214.152344 334.234375 213.726562 334.234375 Z M 146.632812 252.039062 L 231.195312 252.039062 C 227 233.964844 208.078125 222.828125 188.910156 222.828125 C 169.742188 222.828125 150.828125 233.957031 146.632812 252.039062 Z M 233.636719 261.492188 L 144.199219 261.492188 C 141.453125 261.492188 141.453125 265.6875 144.199219 265.6875 L 233.628906 265.6875 C 236.375 265.6875 236.375 261.492188 233.636719 261.492188 Z M 190.367188 210.824219 C 188.980469 209.414062 186.863281 211.539062 188.246094 212.941406 C 189.65625 214.351562 191.773438 212.230469 190.367188 210.824219 Z M 190.367188 210.824219 " fill-opacity="1" fill-rule="nonzero"/></svg>