<svg xmlns="http://www.w3.org/2000/svg" xmlns:xlink="http://www.w3.org/1999/xlink" width="500" zoomAndPan="magnify" viewBox="0 0 375 374.999991" height="500" preserveAspectRatio="xMidYMid meet" version="1.0"><defs><clipPath id="dba9e913b3"><path d="M 12.65625 0 L 362.15625 0 L 362.15625 375 L 12.65625 375 Z M 12.65625 0 " clip-rule="nonzero"/></clipPath></defs><g clip-path="url(#dba9e913b3)"><path fill="#f0ece2" d="M 184.671875 313.199219 C 186.140625 314.742188 188.785156 314.742188 190.328125 313.199219 L 232.804688 270.796875 C 261.390625 239.636719 216.492188 198.191406 187.535156 229.128906 C 169.089844 207.671875 133.15625 220.679688 133.304688 249.117188 C 133.304688 257.347656 136.539062 265.066406 142.34375 270.871094 Z M 147.855469 232.953125 C 156.378906 224.132812 171.589844 224.132812 180.113281 232.953125 C 180.113281 232.953125 184.671875 237.507812 184.671875 237.507812 C 186.140625 239.050781 188.785156 239.050781 190.253906 237.507812 C 195.546875 231.480469 202.527344 225.898438 210.980469 226.265625 C 230.894531 225.898438 241.550781 251.394531 227.144531 265.285156 C 227.144531 265.285156 187.464844 304.894531 187.464844 304.894531 L 147.855469 265.210938 C 138.890625 256.761719 138.890625 241.476562 147.855469 232.953125 Z M 358.097656 350.234375 L 335.980469 350.234375 L 335.980469 326.132812 C 339.800781 326.058594 347.074219 327.308594 346.929688 321.648438 L 336.492188 204.953125 C 340.019531 205.027344 346.707031 206.644531 346.929688 201.207031 C 346.929688 201.207031 346.929688 113.535156 346.929688 113.535156 L 358.097656 113.535156 C 360.304688 113.535156 362.066406 111.773438 362.066406 109.566406 L 362.066406 86.859375 C 361.917969 85.390625 361.257812 83.996094 359.863281 83.332031 L 189.152344 0.515625 C 188.050781 0 186.800781 0 185.699219 0.515625 L 15.066406 83.40625 C 13.742188 84.066406 12.933594 85.464844 12.859375 86.933594 L 12.859375 109.640625 C 12.859375 111.847656 14.625 113.609375 16.828125 113.609375 L 28 113.609375 L 28 201.277344 C 28.21875 206.714844 34.90625 205.027344 38.433594 205.027344 L 28 321.722656 C 27.851562 327.382812 35.199219 326.132812 38.949219 326.207031 L 38.949219 350.308594 L 16.828125 350.308594 C 14.625 350.308594 12.859375 352.074219 12.859375 354.277344 L 12.859375 371.03125 C 12.859375 373.234375 14.625 375 16.828125 375 L 358.171875 375 C 360.375 375 362.140625 373.234375 362.140625 371.03125 L 362.140625 354.277344 C 362.066406 352 360.304688 350.234375 358.097656 350.234375 Z M 338.699219 318.34375 C 328.777344 318.5625 318.046875 315.992188 309.523438 310.921875 L 309.523438 199.222656 C 315.695312 201.425781 322.015625 203.1875 328.484375 204.144531 Z M 328.117188 325.542969 L 328.117188 350.234375 L 320.472656 350.234375 L 320.472656 323.925781 C 322.972656 324.660156 325.542969 325.101562 328.117188 325.542969 Z M 73.265625 291.667969 C 80.394531 289.535156 87.15625 286.523438 93.328125 282.628906 C 97.589844 279.910156 101.558594 276.824219 105.304688 273.222656 C 106.1875 272.414062 106.628906 271.238281 106.554688 269.988281 L 103.46875 234.640625 C 113.390625 230.746094 126.394531 217.519531 127.425781 205.101562 C 127.425781 205.101562 116.550781 154.101562 116.550781 154.101562 C 123.089844 141.609375 126.835938 127.71875 127.425781 113.609375 L 247.574219 113.609375 C 248.164062 127.71875 251.835938 141.609375 258.449219 154.101562 L 247.574219 205.101562 C 248.605469 217.519531 261.609375 230.746094 271.53125 234.640625 L 268.445312 269.988281 C 268.371094 271.164062 268.8125 272.339844 269.695312 273.222656 C 278.804688 281.964844 289.683594 288.066406 301.808594 291.667969 L 301.808594 313.125 C 302.25 317.753906 309.230469 319.078125 312.757812 321.132812 L 312.757812 350.234375 L 62.316406 350.234375 L 62.316406 321.132812 C 65.550781 319.222656 72.898438 317.679688 73.265625 313.125 C 73.265625 313.125 73.265625 291.667969 73.265625 291.667969 Z M 98.546875 268.8125 C 91.195312 275.425781 82.671875 280.351562 73.265625 283.507812 L 73.265625 195.839844 C 79.660156 192.828125 85.613281 189.007812 91.195312 184.671875 C 93.253906 208.332031 96.488281 245.003906 98.546875 268.8125 Z M 98.546875 178.203125 C 103.027344 173.867188 106.921875 169.019531 110.597656 164.019531 L 119.488281 205.761719 C 117.210938 214.066406 109.863281 222.664062 102.734375 226.265625 C 101.777344 215.609375 99.425781 188.566406 98.546875 178.203125 Z M 276.085938 180.996094 L 272.121094 226.191406 C 265.136719 222.738281 257.640625 214.066406 255.363281 205.761719 C 255.363281 205.761719 264.257812 164.019531 264.257812 164.019531 C 267.929688 169.019531 271.824219 173.867188 276.308594 178.203125 Z M 279.542969 232.511719 C 279.542969 232.511719 283.4375 187.683594 283.4375 187.683594 L 283.730469 184.671875 C 289.316406 189.007812 295.265625 192.828125 301.660156 195.839844 L 301.660156 283.4375 C 292.253906 280.351562 283.730469 275.425781 276.382812 268.738281 Z M 339.066406 197.308594 C 294.972656 196.0625 256.539062 157.921875 255.363281 113.683594 L 288.066406 113.683594 C 289.09375 147.191406 309.304688 179.011719 339.066406 194.296875 Z M 339.066406 185.257812 C 313.859375 170.636719 296.957031 142.855469 295.929688 113.609375 L 339.066406 113.609375 Z M 187.464844 8.449219 L 340.976562 82.964844 L 33.949219 82.964844 Z M 20.722656 105.746094 L 20.722656 90.902344 L 354.128906 90.902344 L 354.128906 105.746094 Z M 78.996094 113.609375 C 77.894531 142.855469 61.140625 170.5625 35.859375 185.257812 L 35.859375 113.609375 Z M 35.859375 197.308594 L 35.859375 194.296875 C 65.695312 178.9375 85.832031 147.265625 86.859375 113.683594 L 119.5625 113.683594 C 118.386719 157.847656 79.953125 195.988281 35.859375 197.308594 Z M 36.230469 318.34375 L 46.371094 204.144531 C 52.835938 203.1875 59.230469 201.425781 65.402344 199.222656 C 65.402344 215.683594 65.402344 296.222656 65.402344 310.921875 C 56.511719 316.0625 46.515625 318.488281 36.230469 318.34375 Z M 54.378906 324 L 54.378906 350.308594 L 46.8125 350.308594 L 46.8125 325.617188 C 49.382812 325.101562 51.953125 324.660156 54.378906 324 Z M 354.203125 367.0625 L 20.722656 367.0625 L 20.722656 358.171875 L 354.128906 358.171875 L 354.128906 367.0625 Z M 256.90625 59.746094 L 189.226562 26.824219 C 188.125 26.308594 186.875 26.308594 185.773438 26.824219 L 118.09375 59.746094 C 114.417969 61.433594 115.742188 67.386719 119.78125 67.238281 C 119.78125 67.238281 255.21875 67.238281 255.21875 67.238281 C 259.1875 67.386719 260.65625 61.433594 256.90625 59.746094 Z M 136.90625 59.375 L 187.464844 34.832031 L 238.023438 59.375 Z M 136.90625 59.375 " fill-opacity="1" fill-rule="nonzero"/></g></svg>