<svg xmlns="http://www.w3.org/2000/svg" xmlns:xlink="http://www.w3.org/1999/xlink" width="500" zoomAndPan="magnify" viewBox="0 0 375 374.999991" height="500" preserveAspectRatio="xMidYMid meet" version="1.0"><defs><clipPath id="ecf9a7b055"><path d="M 136.875 92 L 238.125 92 L 238.125 369 L 136.875 369 Z M 136.875 92 " clip-rule="nonzero"/></clipPath></defs><g clip-path="url(#ecf9a7b055)"><path fill="#882426" d="M 136.867188 317.890625 C 136.867188 345.851562 159.539062 368.523438 187.5 368.523438 C 215.460938 368.523438 238.132812 345.851562 238.132812 317.890625 C 238.132812 314.515625 237.796875 311.214844 237.167969 308.023438 C 237.011719 305.34375 236.722656 302.632812 236.289062 299.914062 L 205.855469 108.789062 C 204.335938 99.234375 196.460938 92.355469 187.5 92.355469 C 178.539062 92.355469 170.667969 99.234375 169.144531 108.789062 L 138.710938 299.914062 C 138.277344 302.632812 137.988281 305.34375 137.832031 308.023438 C 137.203125 311.214844 136.867188 314.515625 136.867188 317.890625 Z M 136.867188 317.890625 " fill-opacity="1" fill-rule="nonzero"/></g><path fill="#882426" d="M 165.589844 61.742188 C 164.855469 61.007812 164.160156 60.238281 163.5 59.4375 C 162.84375 58.632812 162.226562 57.800781 161.648438 56.9375 C 161.070312 56.074219 160.539062 55.1875 160.050781 54.269531 C 159.558594 53.355469 159.117188 52.417969 158.71875 51.460938 C 158.324219 50.5 157.972656 49.523438 157.671875 48.53125 C 157.371094 47.539062 157.117188 46.53125 156.917969 45.515625 C 156.714844 44.496094 156.5625 43.46875 156.460938 42.4375 C 156.359375 41.40625 156.308594 40.367188 156.308594 39.332031 C 156.308594 38.292969 156.359375 37.257812 156.460938 36.222656 C 156.5625 35.191406 156.714844 34.164062 156.917969 33.148438 C 157.117188 32.128906 157.371094 31.125 157.671875 30.128906 C 157.972656 29.136719 158.320312 28.160156 158.71875 27.203125 C 159.117188 26.242188 159.558594 25.304688 160.050781 24.390625 C 160.539062 23.476562 161.070312 22.585938 161.648438 21.722656 C 162.226562 20.859375 162.84375 20.027344 163.5 19.222656 C 164.160156 18.421875 164.855469 17.652344 165.589844 16.921875 C 166.324219 16.1875 167.089844 15.488281 167.894531 14.832031 C 168.695312 14.171875 169.527344 13.554688 170.390625 12.976562 C 171.253906 12.402344 172.144531 11.867188 173.058594 11.378906 C 173.976562 10.890625 174.914062 10.445312 175.871094 10.050781 C 176.832031 9.652344 177.808594 9.304688 178.800781 9 C 179.792969 8.699219 180.800781 8.449219 181.816406 8.246094 C 182.835938 8.042969 183.859375 7.890625 184.894531 7.789062 C 185.925781 7.6875 186.960938 7.636719 188 7.636719 C 189.039062 7.636719 190.074219 7.6875 191.105469 7.789062 C 192.140625 7.890625 193.164062 8.042969 194.183594 8.246094 C 195.203125 8.449219 196.207031 8.699219 197.199219 9 C 198.195312 9.300781 199.167969 9.652344 200.128906 10.050781 C 201.085938 10.445312 202.023438 10.890625 202.941406 11.378906 C 203.855469 11.867188 204.746094 12.402344 205.609375 12.976562 C 206.472656 13.554688 207.304688 14.171875 208.105469 14.832031 C 208.910156 15.488281 209.675781 16.183594 210.410156 16.917969 C 211.144531 17.652344 211.839844 18.421875 212.5 19.222656 C 213.15625 20.027344 213.777344 20.859375 214.351562 21.722656 C 214.929688 22.585938 215.460938 23.472656 215.953125 24.390625 C 216.441406 25.304688 216.882812 26.242188 217.28125 27.203125 C 217.679688 28.160156 218.027344 29.136719 218.328125 30.128906 C 218.628906 31.121094 218.882812 32.128906 219.085938 33.148438 C 219.289062 34.164062 219.441406 35.191406 219.542969 36.222656 C 219.644531 37.257812 219.695312 38.292969 219.695312 39.328125 C 219.695312 40.367188 219.644531 41.402344 219.542969 42.4375 C 219.441406 43.46875 219.289062 44.496094 219.085938 45.511719 C 218.882812 46.53125 218.628906 47.535156 218.328125 48.53125 C 218.027344 49.523438 217.679688 50.5 217.28125 51.457031 C 216.882812 52.417969 216.441406 53.355469 215.953125 54.269531 C 215.460938 55.183594 214.929688 56.074219 214.351562 56.9375 C 213.777344 57.800781 213.160156 58.632812 212.5 59.4375 C 211.84375 60.238281 211.144531 61.007812 210.410156 61.742188 C 209.675781 62.472656 208.910156 63.171875 208.105469 63.828125 C 207.304688 64.488281 206.472656 65.105469 205.609375 65.683594 C 204.746094 66.257812 203.855469 66.792969 202.941406 67.28125 C 202.027344 67.769531 201.089844 68.214844 200.128906 68.609375 C 199.171875 69.007812 198.195312 69.359375 197.203125 69.660156 C 196.207031 69.960938 195.203125 70.210938 194.183594 70.414062 C 193.167969 70.617188 192.140625 70.769531 191.109375 70.871094 C 190.074219 70.972656 189.039062 71.023438 188 71.023438 C 186.964844 71.023438 185.925781 70.972656 184.894531 70.871094 C 183.863281 70.769531 182.835938 70.617188 181.816406 70.414062 C 180.800781 70.210938 179.792969 69.960938 178.800781 69.660156 C 177.808594 69.359375 176.832031 69.007812 175.871094 68.613281 C 174.914062 68.214844 173.976562 67.769531 173.0625 67.28125 C 172.144531 66.792969 171.257812 66.257812 170.394531 65.683594 C 169.53125 65.105469 168.695312 64.488281 167.894531 63.828125 C 167.09375 63.171875 166.324219 62.476562 165.589844 61.742188 Z M 165.589844 61.742188 " fill-opacity="1" fill-rule="nonzero"/></svg>