<svg xmlns="http://www.w3.org/2000/svg" xmlns:xlink="http://www.w3.org/1999/xlink" width="500" zoomAndPan="magnify" viewBox="0 0 375 374.999991" height="500" preserveAspectRatio="xMidYMid meet" version="1.0"><defs><clipPath id="2061ef52f5"><path d="M 136.875 6 L 238.125 6 L 238.125 283 L 136.875 283 Z M 136.875 6 " clip-rule="nonzero"/></clipPath></defs><g clip-path="url(#2061ef52f5)"><path fill="#882426" d="M 238.132812 57.109375 C 238.132812 29.148438 215.460938 6.476562 187.5 6.476562 C 159.539062 6.476562 136.867188 29.148438 136.867188 57.109375 C 136.867188 60.484375 137.203125 63.785156 137.832031 66.976562 C 137.988281 69.65625 138.277344 72.367188 138.710938 75.085938 L 169.144531 266.210938 C 170.664062 275.765625 178.539062 282.644531 187.5 282.644531 C 196.460938 282.644531 204.332031 275.765625 205.855469 266.210938 L 236.289062 75.085938 C 236.722656 72.367188 237.011719 69.65625 237.167969 66.976562 C 237.796875 63.785156 238.132812 60.484375 238.132812 57.109375 Z M 238.132812 57.109375 " fill-opacity="1" fill-rule="nonzero"/></g><path fill="#882426" d="M 209.410156 313.257812 C 210.144531 313.992188 210.839844 314.761719 211.5 315.5625 C 212.15625 316.367188 212.773438 317.199219 213.351562 318.0625 C 213.929688 318.925781 214.460938 319.8125 214.949219 320.730469 C 215.441406 321.644531 215.882812 322.582031 216.28125 323.539062 C 216.675781 324.5 217.027344 325.476562 217.328125 326.46875 C 217.628906 327.460938 217.882812 328.46875 218.082031 329.484375 C 218.285156 330.503906 218.4375 331.53125 218.539062 332.5625 C 218.640625 333.59375 218.691406 334.632812 218.691406 335.667969 C 218.691406 336.707031 218.640625 337.742188 218.539062 338.777344 C 218.4375 339.808594 218.285156 340.835938 218.082031 341.851562 C 217.882812 342.871094 217.628906 343.875 217.328125 344.871094 C 217.027344 345.863281 216.679688 346.839844 216.28125 347.796875 C 215.882812 348.757812 215.441406 349.695312 214.949219 350.609375 C 214.460938 351.523438 213.929688 352.414062 213.351562 353.277344 C 212.773438 354.140625 212.15625 354.972656 211.5 355.777344 C 210.839844 356.578125 210.144531 357.347656 209.410156 358.078125 C 208.675781 358.8125 207.910156 359.511719 207.105469 360.167969 C 206.304688 360.828125 205.472656 361.445312 204.609375 362.023438 C 203.746094 362.597656 202.855469 363.132812 201.941406 363.621094 C 201.023438 364.109375 200.085938 364.554688 199.128906 364.949219 C 198.167969 365.347656 197.191406 365.695312 196.199219 366 C 195.207031 366.300781 194.199219 366.550781 193.183594 366.753906 C 192.164062 366.957031 191.140625 367.109375 190.105469 367.210938 C 189.074219 367.3125 188.039062 367.363281 187 367.363281 C 185.960938 367.363281 184.925781 367.3125 183.894531 367.210938 C 182.859375 367.109375 181.835938 366.957031 180.816406 366.753906 C 179.796875 366.550781 178.792969 366.300781 177.800781 366 C 176.804688 365.699219 175.832031 365.347656 174.871094 364.949219 C 173.914062 364.554688 172.976562 364.109375 172.058594 363.621094 C 171.144531 363.132812 170.253906 362.597656 169.390625 362.023438 C 168.527344 361.445312 167.695312 360.828125 166.894531 360.167969 C 166.089844 359.511719 165.324219 358.816406 164.589844 358.082031 C 163.855469 357.347656 163.160156 356.578125 162.5 355.777344 C 161.84375 354.972656 161.222656 354.140625 160.648438 353.277344 C 160.070312 352.414062 159.539062 351.527344 159.046875 350.609375 C 158.558594 349.695312 158.117188 348.757812 157.71875 347.796875 C 157.320312 346.839844 156.972656 345.863281 156.671875 344.871094 C 156.371094 343.878906 156.117188 342.871094 155.914062 341.851562 C 155.710938 340.835938 155.558594 339.808594 155.457031 338.777344 C 155.355469 337.742188 155.304688 336.707031 155.304688 335.671875 C 155.304688 334.632812 155.355469 333.597656 155.457031 332.5625 C 155.558594 331.53125 155.710938 330.503906 155.914062 329.488281 C 156.117188 328.46875 156.367188 327.464844 156.671875 326.46875 C 156.972656 325.476562 157.320312 324.5 157.71875 323.542969 C 158.117188 322.582031 158.558594 321.644531 159.046875 320.730469 C 159.539062 319.816406 160.070312 318.925781 160.648438 318.0625 C 161.222656 317.199219 161.839844 316.367188 162.5 315.5625 C 163.15625 314.761719 163.855469 313.992188 164.589844 313.257812 C 165.324219 312.527344 166.089844 311.828125 166.894531 311.171875 C 167.695312 310.511719 168.527344 309.894531 169.390625 309.316406 C 170.253906 308.742188 171.144531 308.207031 172.058594 307.71875 C 172.972656 307.230469 173.910156 306.785156 174.871094 306.390625 C 175.828125 305.992188 176.804688 305.640625 177.796875 305.339844 C 178.792969 305.039062 179.796875 304.789062 180.816406 304.585938 C 181.832031 304.382812 182.859375 304.230469 183.890625 304.128906 C 184.925781 304.027344 185.960938 303.976562 187 303.976562 C 188.035156 303.976562 189.074219 304.027344 190.105469 304.128906 C 191.136719 304.230469 192.164062 304.382812 193.183594 304.585938 C 194.199219 304.789062 195.207031 305.039062 196.199219 305.339844 C 197.191406 305.640625 198.167969 305.992188 199.128906 306.386719 C 200.085938 306.785156 201.023438 307.230469 201.9375 307.71875 C 202.855469 308.207031 203.742188 308.742188 204.605469 309.316406 C 205.46875 309.894531 206.300781 310.511719 207.105469 311.171875 C 207.90625 311.828125 208.675781 312.523438 209.410156 313.257812 Z M 209.410156 313.257812 " fill-opacity="1" fill-rule="nonzero"/></svg>